<svg width="68" height="68" viewBox="0 0 68 68" fill="none" xmlns="http://www.w3.org/2000/svg">
<path d="M34 0C40.7245 0 47.2981 1.99406 52.8894 5.73003C58.4806 9.466 62.8385 14.7761 65.4119 20.9888C67.9853 27.2014 68.6586 34.0377 67.3467 40.6331C66.0348 47.2284 62.7966 53.2866 58.0416 58.0416C53.2866 62.7966 47.2284 66.0348 40.6331 67.3467C34.0377 68.6586 27.2014 67.9853 20.9888 65.4119C14.7761 62.8385 9.466 58.4806 5.73003 52.8894C1.99406 47.2981 0 40.7245 0 34C0 24.9826 3.58213 16.3346 9.95837 9.95837C16.3346 3.58213 24.9826 0 34 0Z" fill="#FFF6EB"/>
<path d="M34.0513 29.0648L21.3217 41.7944C21.1976 41.9185 21.0504 42.0169 20.8883 42.084C20.7262 42.1511 20.5525 42.1857 20.3771 42.1857C20.2017 42.1857 20.028 42.1511 19.866 42.084C19.7039 42.0169 19.5567 41.9185 19.4326 41.7944C19.3086 41.6704 19.2102 41.5232 19.1431 41.3611C19.0759 41.199 19.0414 41.0253 19.0414 40.8499C19.0414 40.6745 19.0759 40.5008 19.1431 40.3388C19.2102 40.1767 19.3086 40.0294 19.4326 39.9054L33.1061 26.2306C33.3567 25.9804 33.6964 25.8398 34.0506 25.8398C34.4047 25.8398 34.7444 25.9804 34.9951 26.2306L48.6699 39.904C48.9037 40.1579 49.0302 40.4922 49.0232 40.8372C49.0161 41.1822 48.8759 41.5111 48.6319 41.7551C48.3879 41.9991 48.059 42.1393 47.714 42.1464C47.369 42.1534 47.0347 42.0269 46.7808 41.7931L34.0513 29.0648Z" fill="#FF8E01" stroke="#FF8E01" stroke-width="0.3"/>
</svg>
