<svg width="1366" height="811" viewBox="0 0 1366 811" fill="none" xmlns="http://www.w3.org/2000/svg">
<rect width="1366" height="811" fill="white"/>
<mask id="mask0_731_3714" style="mask-type:alpha" maskUnits="userSpaceOnUse" x="0" y="0" width="1366" height="811">
<rect width="1366" height="811" fill="#D9D9D9"/>
</mask>
<g mask="url(#mask0_731_3714)">
<rect x="1084.49" y="-143.547" width="436.405" height="658.131" rx="64" transform="rotate(23.0192 1084.49 -143.547)" fill="url(#paint0_linear_731_3714)"/>
<mask id="mask1_731_3714" style="mask-type:alpha" maskUnits="userSpaceOnUse" x="-181" y="-44" width="1440" height="957">
<rect x="-5" y="5" width="1430" height="947" transform="matrix(-1 0 0 1 1249 -44)" fill="#F5F8FF" stroke="white" stroke-width="10"/>
</mask>
<g mask="url(#mask1_731_3714)">
<path d="M687.313 707.758C692.373 710.693 696.688 714.763 699.919 719.648C703.149 724.533 705.209 730.102 705.936 735.918C706.566 741.746 705.843 747.64 703.823 753.141C701.802 758.641 698.54 763.599 694.291 767.625C686.923 774.492 674.524 777.787 667.041 771.047C665.823 770.094 665.016 768.708 664.789 767.175C664.589 764.186 667.889 762.104 670.859 761.81C678.294 761.078 685.188 767.445 686.72 774.776C688.252 782.108 685.343 789.804 680.72 795.686C673.314 805.098 659.89 810.725 649 805.774" stroke="#E5E5E5" stroke-width="2" stroke-miterlimit="10" stroke-linecap="round" stroke-dasharray="3.14 5.24"/>
<path d="M795.877 427.983C792.828 425.721 789.292 424.196 785.545 423.528C781.797 422.859 777.941 423.065 774.276 424.13C770.629 425.255 767.288 427.204 764.514 429.826C761.74 432.447 759.609 435.67 758.286 439.241C756.061 445.404 757.257 453.647 763.201 456.374C764.082 456.855 765.117 456.979 766.091 456.719C767.931 456.069 768.333 453.565 767.75 451.718C766.288 447.095 760.719 444.623 755.943 445.598C751.166 446.573 747.306 450.29 744.969 454.562C741.231 461.403 741.295 470.858 747.038 476.077" stroke="#E5E5E5" stroke-width="2" stroke-miterlimit="10" stroke-linecap="round" stroke-dasharray="3.14 5.24"/>
<path d="M609.337 801.634C631.135 774.504 651.944 747.174 673.742 720.045" stroke="#E5E5E5" stroke-width="2" stroke-miterlimit="10"/>
<path d="M673.248 720.057C647.883 722.885 627.482 725.327 602.427 729.42" stroke="#E5E5E5" stroke-width="2" stroke-miterlimit="10"/>
<path d="M608.8 801.54C608.226 784.155 604.126 750.802 601.898 729.32" stroke="#E5E5E5" stroke-width="2" stroke-miterlimit="10"/>
<path d="M618.443 763.668C624.992 754.73 631.242 745.582 637.192 736.224" stroke="#E5E5E5" stroke-width="2" stroke-miterlimit="10"/>
<path d="M636.919 736.067L615.983 738.162" stroke="#E5E5E5" stroke-width="2" stroke-miterlimit="10"/>
<path d="M618.456 763.675C616.954 755.448 615.672 746.484 614.977 738.15" stroke="#E5E5E5" stroke-width="2" stroke-miterlimit="10"/>
<path d="M618.739 789.42L615.156 786.004" stroke="#E5E5E5" stroke-width="2" stroke-miterlimit="10"/>
<path d="M626.149 779.884L620.25 774.865" stroke="#E5E5E5" stroke-width="2" stroke-miterlimit="10"/>
<path d="M632.815 771.675C631.837 770.42 630.573 769.419 629.129 768.756" stroke="#E5E5E5" stroke-width="2" stroke-miterlimit="10"/>
<path d="M639.787 761.929L634.715 758.127" stroke="#E5E5E5" stroke-width="2" stroke-miterlimit="10"/>
<path d="M646.182 754.784L642.918 752.482" stroke="#E5E5E5" stroke-width="2" stroke-miterlimit="10"/>
<path d="M651.758 746.801L648.191 743.367" stroke="#E5E5E5" stroke-width="2" stroke-miterlimit="10"/>
<path d="M658.885 738.737L656.207 736.455" stroke="#E5E5E5" stroke-width="2" stroke-miterlimit="10"/>
<path d="M665.426 730.695L660.73 727.891" stroke="#E5E5E5" stroke-width="2" stroke-miterlimit="10"/>
<path d="M893.231 131C890.359 134.773 888.405 139.179 887.527 143.86C886.649 148.541 886.871 153.366 888.176 157.944C889.481 162.521 891.831 166.723 895.037 170.209C898.243 173.694 902.214 176.365 906.629 178.005C914.214 180.822 924.418 179.382 927.869 171.982C928.475 170.885 928.642 169.593 928.335 168.375C927.557 166.074 924.471 165.554 922.177 166.273C916.445 168.067 913.314 175.005 914.454 180.975C915.593 186.945 920.133 191.789 925.383 194.73C933.786 199.441 945.471 199.424 952 192.289" stroke="#E5E5E5" stroke-width="2" stroke-miterlimit="10" stroke-linecap="round" stroke-dasharray="3.14 5.24"/>
<g opacity="0.3">
<path d="M407.356 -166.678C372.019 -155.219 331.394 -138.754 298.029 -103.391C264.664 -68.0282 250.505 -26.459 241.068 9.56573L238.077 8.77351C247.621 -27.6044 261.941 -69.6451 295.787 -105.517C329.633 -141.389 370.704 -158.056 406.401 -169.628L407.356 -166.678Z" fill="#E6ECF9" fill-opacity="0.43"/>
<path d="M431.958 -192.781C379.389 -177.735 325.001 -162.171 282.998 -117.653C240.995 -73.1347 228.511 -17.8529 216.457 35.6223L213.454 34.9326C225.628 -18.94 238.203 -74.6475 280.785 -119.78C323.368 -164.912 378.146 -180.589 431.119 -195.764L431.972 -192.796L431.958 -192.781Z" fill="#E6ECF9" fill-opacity="0.43"/>
<path d="M456.642 -218.915C443.503 -214.653 430.003 -210.791 416.922 -207.042C364.339 -191.98 309.965 -176.431 267.962 -131.913C225.959 -87.395 213.475 -32.1131 201.421 21.3621C198.427 34.6501 195.315 48.3937 191.8 61.7838L188.809 60.9916C192.297 47.6606 195.395 33.932 198.404 20.6581C210.562 -33.2286 223.137 -88.9361 265.72 -134.068C308.302 -179.201 363.08 -194.878 416.068 -210.038C429.106 -213.771 442.605 -217.634 455.687 -221.865L456.642 -218.915Z" fill="#E6ECF9" fill-opacity="0.43"/>
<path d="M23.4739 240.187C10.3346 244.448 -3.19401 248.312 -16.2606 252.046C-68.8295 267.092 -123.218 282.657 -165.207 327.159C-207.196 371.662 -219.694 426.959 -231.762 480.45C-234.77 493.753 -237.868 507.481 -241.368 520.885L-244.359 520.093C-240.857 506.747 -237.773 493.034 -234.764 479.76C-222.606 425.873 -210.031 370.166 -167.448 325.033C-124.866 279.901 -70.0876 264.224 -17.1148 249.049C-4.07728 245.316 9.42229 241.453 22.5184 237.208L23.4732 240.158L23.4739 240.187Z" fill="#E6ECF9" fill-opacity="0.43"/>
<path d="M486.7 -250.655C459.551 -237.819 430.228 -229.43 401.886 -221.302C349.303 -206.241 294.929 -190.692 252.926 -146.174C210.923 -101.656 198.438 -46.3741 186.37 7.087C179.862 35.9245 173.121 65.7606 161.857 93.6361L158.988 92.4757C170.17 64.8359 176.872 35.1322 183.367 6.39721C195.526 -47.4895 208.115 -103.183 250.698 -148.315C293.281 -193.447 348.059 -209.124 401.047 -224.285C429.288 -232.366 458.481 -240.736 485.4 -253.45L486.715 -250.641L486.7 -250.655Z" fill="#E6ECF9" fill-opacity="0.43"/>
<path d="M53.5343 208.446C26.3855 221.283 -2.93831 229.671 -31.2947 237.785C-83.8636 252.831 -138.252 268.396 -180.255 312.914C-222.258 357.431 -234.742 412.713 -246.811 466.174C-253.28 494.821 -259.969 524.452 -271.12 552.178L-273.99 551.018C-262.949 523.528 -256.271 494.029 -249.843 465.485C-237.669 411.613 -225.095 355.905 -182.512 310.773C-139.929 265.641 -85.1508 249.964 -32.178 234.789C-3.93713 226.708 25.2712 218.352 52.1756 205.624L53.4903 208.433L53.5343 208.446Z" fill="#E6ECF9" fill-opacity="0.43"/>
<path d="M104.017 147.554C61.4341 192.687 6.65622 208.364 -46.3166 223.538C-98.8855 238.585 -153.274 254.149 -195.263 298.652C-237.252 343.155 -249.75 398.452 -261.819 451.913C-268.288 480.559 -274.977 510.19 -286.128 537.916L-288.998 536.756C-277.957 509.266 -271.278 479.767 -264.85 451.224C-252.677 397.351 -240.102 341.644 -197.519 296.511C-154.937 251.379 -100.159 235.702 -47.1858 220.527C5.3831 205.481 59.7713 189.917 101.76 145.414C143.749 100.911 156.248 45.614 168.302 -7.86126C180.475 -61.7338 193.05 -117.441 235.632 -162.574L237.874 -160.447C195.871 -115.929 183.387 -60.6475 171.333 -7.17228C159.159 46.7003 146.585 102.408 104.002 147.54L104.017 147.554Z" fill="#E6ECF9" fill-opacity="0.43"/>
<path d="M88.985 133.295C46.4022 178.427 -8.37573 194.104 -61.3635 209.265C-113.932 224.311 -168.321 239.875 -210.31 284.378C-252.299 328.881 -264.797 384.178 -276.851 437.653C-283.32 466.3 -290.009 495.931 -301.16 523.657L-304.03 522.497C-292.989 495.007 -286.325 465.494 -279.882 436.964C-267.723 383.078 -255.149 327.37 -212.566 282.238C-169.983 237.106 -115.206 221.428 -62.2177 206.268C-9.64884 191.222 44.7393 175.658 86.7284 131.155C128.717 86.6515 141.216 31.3547 153.27 -22.1205C165.428 -76.0072 178.003 -131.715 220.586 -176.847L222.827 -174.721C180.824 -130.203 168.34 -74.921 156.286 -21.4457C144.127 32.441 131.553 88.1485 88.9701 133.281L88.985 133.295Z" fill="#E6ECF9" fill-opacity="0.43"/>
<path d="M73.9506 119.035C31.3677 164.167 -23.4102 179.844 -76.3831 195.019C-128.952 210.065 -183.34 225.629 -225.329 270.132C-267.318 314.635 -279.817 369.932 -291.885 423.393C-298.354 452.04 -305.043 481.67 -316.194 509.397L-319.064 508.236C-308.023 480.746 -301.345 451.248 -294.917 422.704C-282.743 368.832 -270.169 313.124 -227.586 267.992C-185.003 222.859 -130.225 207.182 -77.2522 192.008C-24.6833 176.961 29.7049 161.397 71.6939 116.894C113.683 72.3913 126.181 17.0944 138.235 -36.3808C150.409 -90.2533 162.983 -145.961 205.566 -191.093L207.808 -188.967C165.805 -144.449 153.32 -89.167 141.267 -35.6918C129.093 18.1807 116.519 73.8882 73.9356 119.021L73.9506 119.035Z" fill="#E6ECF9" fill-opacity="0.43"/>
<path d="M58.8998 104.759C16.317 149.892 -38.461 165.569 -91.4338 180.743C-144.003 195.79 -198.391 211.354 -240.38 255.857C-282.369 300.36 -294.867 355.657 -306.936 409.118C-313.405 437.764 -320.094 467.395 -331.245 495.121L-334.115 493.961C-323.074 466.471 -316.396 436.972 -309.968 408.429C-297.794 354.556 -285.22 298.849 -242.637 253.716C-200.054 208.584 -145.276 192.907 -92.303 177.733C-39.734 162.686 14.6541 147.122 56.6431 102.619C98.6322 58.1159 111.13 2.81909 123.184 -50.6561C135.358 -104.529 147.932 -160.236 190.515 -205.369L192.757 -203.242C150.754 -158.724 138.27 -103.442 126.216 -49.9672C114.042 3.90534 101.468 59.6128 58.8848 104.745L58.8998 104.759Z" fill="#E6ECF9" fill-opacity="0.43"/>
<path d="M43.8653 90.4991C1.28246 135.631 -53.4955 151.308 -106.468 166.483C-159.037 181.529 -213.41 197.108 -255.4 241.611C-297.389 286.114 -309.887 341.411 -321.956 394.872C-328.425 423.518 -335.114 453.149 -346.265 480.875L-349.135 479.715C-338.093 452.225 -331.415 422.726 -324.987 394.183C-312.813 340.31 -300.239 284.603 -257.656 239.47C-215.073 194.338 -160.295 178.661 -107.323 163.486C-54.7536 148.44 -0.380398 132.862 41.6086 88.3586C83.5978 43.8556 96.096 -11.4412 108.165 -64.9023C120.324 -118.789 132.913 -174.482 175.496 -219.615L177.737 -217.488C135.734 -172.97 123.25 -117.689 111.181 -64.2275C99.0074 -10.3549 86.4332 45.3525 43.8504 90.4849L43.8653 90.4991Z" fill="#E6ECF9" fill-opacity="0.43"/>
<path d="M28.8334 76.2398C-13.7495 121.372 -68.5274 137.049 -121.5 152.224C-174.069 167.27 -228.457 182.834 -270.446 227.337C-312.435 271.84 -324.934 327.137 -337.003 380.598C-343.471 409.245 -350.16 438.875 -361.312 466.602L-364.181 465.441C-353.14 437.951 -346.462 408.453 -340.034 379.909C-327.86 326.037 -315.286 270.329 -272.703 225.197C-230.12 180.065 -175.342 164.387 -122.369 149.213C-69.8005 134.166 -15.4123 118.602 26.5767 74.0994C68.5658 29.5964 81.0641 -25.7005 93.1179 -79.1757C105.292 -133.048 117.866 -188.756 160.449 -233.888L162.691 -231.762C120.687 -187.244 108.203 -131.962 96.1494 -78.4867C83.9755 -24.6142 71.4013 31.0933 28.8184 76.2256L28.8334 76.2398Z" fill="#E6ECF9" fill-opacity="0.43"/>
<path d="M13.7989 61.9796C-28.7839 107.112 -83.5619 122.789 -136.535 137.963C-189.104 153.01 -243.477 168.588 -285.466 213.091C-327.455 257.594 -339.953 312.891 -352.022 366.352C-358.491 394.999 -365.18 424.629 -376.331 452.356L-379.201 451.195C-368.16 423.705 -361.482 394.207 -355.053 365.663C-342.88 311.791 -330.305 256.083 -287.723 210.951C-245.14 165.818 -190.362 150.141 -137.389 134.967C-84.82 119.92 -30.4468 104.342 11.5423 59.8391C53.5314 15.3361 66.0296 -39.9607 78.0984 -93.4218C90.2573 -147.308 102.846 -203.002 145.429 -248.134L147.671 -246.008C105.668 -201.49 93.1837 -146.208 81.1149 -92.747C68.941 -38.8745 56.3668 16.833 13.784 61.9654L13.7989 61.9796Z" fill="#E6ECF9" fill-opacity="0.43"/>
<path d="M-1.23626 47.7198C-43.8191 92.8521 -98.597 108.529 -151.57 123.704C-204.139 138.75 -258.512 154.328 -300.501 198.831C-342.49 243.334 -354.988 298.631 -367.057 352.092C-373.526 380.739 -380.215 410.369 -391.366 438.096L-394.236 436.936C-383.195 409.446 -376.517 379.947 -370.089 351.403C-357.915 297.531 -345.341 241.823 -302.758 196.691C-260.175 151.559 -205.397 135.882 -152.424 120.707C-99.8552 105.661 -45.467 90.0965 -3.47795 45.5935C38.5112 1.09049 51.0094 -54.2063 63.0633 -107.682C75.2371 -161.554 87.8113 -217.262 130.394 -262.394L132.636 -260.268C90.6327 -215.75 78.1485 -160.468 66.0797 -107.007C53.9059 -53.1342 41.3317 2.57326 -1.25119 47.7056L-1.23626 47.7198Z" fill="#E6ECF9" fill-opacity="0.43"/>
<path d="M-16.2675 33.4581C-58.8504 78.5904 -113.628 94.2674 -166.601 109.442C-219.17 124.488 -273.543 140.067 -315.532 184.57C-357.521 229.073 -370.02 284.37 -382.088 337.831C-388.557 366.477 -395.246 396.108 -406.398 423.834L-409.267 422.674C-398.226 395.184 -391.548 365.685 -385.12 337.142C-372.946 283.269 -360.372 227.562 -317.789 182.429C-275.206 137.297 -220.428 121.62 -167.455 106.445C-114.886 91.3988 -60.4982 75.8347 -18.5092 31.3318C23.4799 -13.1712 35.9781 -68.468 48.032 -121.943C60.2058 -175.816 72.78 -231.523 115.363 -276.656L117.605 -274.529C75.6014 -230.011 63.1173 -174.73 51.0485 -121.268C38.8746 -67.396 26.3004 -11.6885 -16.2824 33.4439L-16.2675 33.4581Z" fill="#E6ECF9" fill-opacity="0.43"/>
<path d="M-31.3183 19.1846C-73.9011 64.3169 -128.679 79.994 -181.652 95.1685C-234.221 110.215 -288.594 125.793 -330.583 170.296C-372.572 214.799 -385.07 270.096 -397.139 323.557C-403.608 352.204 -410.297 381.834 -421.448 409.561L-424.318 408.4C-413.277 380.91 -406.614 351.397 -400.171 322.868C-387.997 268.996 -375.423 213.288 -332.84 168.156C-290.257 123.024 -235.479 107.346 -182.506 92.1719C-129.937 77.1254 -75.564 61.5471 -33.5749 17.0442C8.41417 -27.4588 20.9124 -82.7557 32.9812 -136.217C45.1401 -190.103 57.7293 -245.797 100.312 -290.929L102.554 -288.803C60.5506 -244.285 48.0665 -189.003 35.9977 -135.542C23.8388 -81.6552 11.2497 -25.9619 -31.3332 19.1704L-31.3183 19.1846Z" fill="#E6ECF9" fill-opacity="0.43"/>
<path d="M-46.3541 4.92339C-88.937 50.0557 -143.715 65.7327 -196.688 80.9073C-249.257 95.9538 -303.645 111.518 -345.634 156.021C-387.623 200.524 -400.121 255.821 -412.19 309.282C-418.659 337.928 -425.348 367.559 -436.499 395.285L-439.369 394.125C-428.328 366.635 -421.664 337.122 -415.221 308.593C-403.048 254.72 -390.473 199.013 -347.891 153.88C-305.308 108.748 -250.53 93.0711 -197.557 77.8966C-144.988 62.85 -90.5998 47.2859 -48.6108 2.78296C-6.62166 -41.7201 5.87657 -97.0169 17.9304 -150.492C30.1043 -204.365 42.6785 -260.072 85.2613 -305.204L87.503 -303.078C45.4998 -258.56 33.0157 -203.278 20.9619 -149.803C8.78798 -95.9306 -3.78618 -40.2231 -46.3691 4.90922L-46.3541 4.92339Z" fill="#E6ECF9" fill-opacity="0.43"/>
<path d="M-61.3886 -9.33492C-103.971 35.7974 -158.749 51.4744 -211.722 66.649C-264.291 81.6955 -318.664 97.2738 -360.653 141.777C-402.643 186.28 -415.141 241.577 -427.21 295.038C-433.678 323.684 -440.368 353.315 -451.519 381.041L-454.388 379.881C-443.347 352.391 -436.669 322.892 -430.241 294.349C-418.067 240.476 -405.493 184.769 -362.91 139.636C-320.327 94.504 -265.549 78.8269 -212.576 63.6524C-160.007 48.6058 -105.634 33.0276 -63.6452 -11.4753C-21.6561 -55.9784 -9.15791 -111.275 2.91091 -164.736C15.0847 -218.609 27.6589 -274.316 70.2418 -319.449L72.4835 -317.322C30.4803 -272.804 17.9962 -217.523 5.92739 -164.061C-6.24649 -110.189 -18.8206 -54.4814 -61.4035 -9.34908L-61.3886 -9.33492Z" fill="#E6ECF9" fill-opacity="0.43"/>
<path d="M-76.4244 -23.5961C-119.007 21.5362 -173.785 37.2132 -226.758 52.3877C-279.327 67.4343 -333.715 82.9984 -375.704 127.501C-417.693 172.004 -430.192 227.301 -442.26 280.762C-448.729 309.409 -455.418 339.039 -466.569 366.766L-469.439 365.605C-458.398 338.116 -451.735 308.603 -445.292 280.073C-433.118 226.201 -420.544 170.493 -377.961 125.361C-335.378 80.2286 -280.6 64.5515 -227.627 49.377C-175.058 34.3304 -120.685 18.7522 -78.696 -25.7508C-36.7069 -70.2538 -24.2087 -125.551 -12.1399 -179.012C0.0189889 -232.898 12.6082 -288.592 55.191 -333.724L57.4327 -331.598C15.4295 -287.08 2.94541 -231.798 -9.10846 -178.323C-21.2674 -124.436 -33.8565 -68.7427 -76.4394 -23.6103L-76.4244 -23.5961Z" fill="#E6ECF9" fill-opacity="0.43"/>
<path d="M-91.4589 -37.8564C-134.042 7.2759 -188.82 22.9529 -241.793 38.1275C-294.361 53.174 -348.735 68.7523 -390.724 113.255C-432.713 157.758 -445.211 213.055 -457.28 266.516C-463.749 295.163 -470.438 324.793 -481.589 352.52L-484.459 351.359C-473.418 323.869 -466.739 294.371 -460.311 265.827C-448.137 211.955 -435.563 156.247 -392.98 111.115C-350.398 65.9825 -295.62 50.3054 -242.647 35.1309C-190.078 20.0843 -135.705 4.50612 -93.7156 -39.9968C-51.7264 -84.4998 -39.2282 -139.797 -27.1594 -193.258C-15.0005 -247.144 -2.41137 -302.838 40.1715 -347.97L42.4132 -345.844C0.409996 -301.326 -12.0741 -246.044 -24.1429 -192.583C-36.3019 -138.696 -48.891 -83.0029 -91.4738 -37.8706L-91.4589 -37.8564Z" fill="#E6ECF9" fill-opacity="0.43"/>
<path d="M-106.502 -52.1298C-149.085 -6.99754 -203.863 8.6795 -256.835 23.854C-309.404 38.9006 -363.793 54.4647 -405.782 98.9677C-447.771 143.471 -460.269 198.768 -472.323 252.243C-478.792 280.889 -485.481 310.52 -496.632 338.246L-499.502 337.086C-488.46 309.596 -481.782 280.097 -475.354 251.554C-463.195 197.667 -450.606 141.974 -408.023 96.8414C-365.441 51.7091 -310.663 36.032 -257.69 20.8575C-205.121 5.81093 -150.748 -9.76732 -108.759 -54.2703C-66.7694 -98.7733 -54.2712 -154.07 -42.2024 -207.531C-30.0435 -261.418 -17.4543 -317.111 25.1285 -362.244L27.3702 -360.117C-14.633 -315.599 -27.1171 -260.317 -39.1709 -206.842C-51.3299 -152.955 -63.919 -97.2622 -106.502 -52.1298Z" fill="#E6ECF9" fill-opacity="0.43"/>
<path d="M-121.545 -66.3896C-164.128 -21.2573 -218.906 -5.58026 -271.878 9.59427C-324.447 24.6408 -378.821 40.2191 -420.81 84.7221C-462.799 129.225 -475.297 184.522 -487.366 237.983C-493.835 266.63 -500.524 296.26 -511.675 323.987L-514.545 322.826C-503.503 295.336 -496.825 265.837 -490.397 237.294C-478.223 183.421 -465.649 127.714 -423.066 82.5816C-380.483 37.4493 -325.705 21.7722 -272.733 6.59773C-220.164 -8.44884 -165.791 -24.0271 -123.801 -68.53C-81.8124 -113.033 -69.3142 -168.33 -57.2453 -221.791C-45.0715 -275.663 -32.4973 -331.371 10.0855 -376.503L12.3272 -374.377C-29.6759 -329.859 -42.16 -274.577 -54.2289 -221.116C-66.4027 -167.244 -78.9769 -111.536 -121.56 -66.4038L-121.545 -66.3896Z" fill="#E6ECF9" fill-opacity="0.43"/>
<path d="M-136.576 -80.6494C-179.159 -35.5171 -233.937 -19.84 -286.91 -4.66551C-339.479 10.3811 -393.852 25.9593 -435.841 70.4623C-477.83 114.965 -490.328 170.262 -502.397 223.723C-508.866 252.37 -515.555 282 -526.706 309.727L-529.576 308.566C-518.535 281.076 -511.871 251.563 -505.428 223.034C-493.255 169.162 -480.68 113.454 -438.098 68.3219C-395.515 23.1896 -340.737 7.51248 -287.764 -7.66204C-235.195 -22.7086 -180.822 -38.2868 -138.833 -82.7898C-96.8436 -127.293 -84.3454 -182.59 -72.2766 -236.051C-60.1177 -289.937 -47.5286 -345.631 -4.94571 -390.763L-2.70401 -388.637C-44.7072 -344.119 -57.1913 -288.837 -69.2601 -235.376C-81.419 -181.489 -94.0081 -125.796 -136.591 -80.6635L-136.576 -80.6494Z" fill="#E6ECF9" fill-opacity="0.43"/>
<path d="M-151.611 -94.9111C-194.194 -49.7788 -248.972 -34.1018 -301.945 -18.9272C-354.514 -3.88065 -408.887 11.6976 -450.876 56.2006C-492.865 100.704 -505.363 156 -517.432 209.461C-523.901 238.108 -530.59 267.739 -541.741 295.465L-544.611 294.305C-533.57 266.815 -526.892 237.316 -520.464 208.772C-508.29 154.9 -495.716 99.1925 -453.133 54.0602C-410.55 8.92784 -355.772 -6.74924 -302.799 -21.9238C-250.23 -36.9703 -195.857 -52.5486 -153.868 -97.0515C-111.879 -141.555 -99.3806 -196.851 -87.3118 -250.312C-75.1529 -304.199 -62.5637 -359.892 -19.9809 -405.025L-17.7392 -402.898C-59.7423 -358.381 -72.2264 -303.099 -84.2953 -249.638C-96.4542 -195.751 -109.043 -140.058 -151.626 -94.9253L-151.611 -94.9111Z" fill="#E6ECF9" fill-opacity="0.43"/>
<path d="M-166.642 -109.171C-209.225 -64.0385 -264.003 -48.3615 -316.976 -33.187C-369.545 -18.1404 -423.918 -2.56215 -465.907 41.9408C-507.896 86.4438 -520.395 141.741 -532.463 195.202C-538.932 223.848 -545.621 253.479 -556.773 281.205L-559.642 280.045C-548.601 252.555 -541.923 223.056 -535.495 194.513C-523.321 140.64 -510.747 84.9327 -468.164 39.8004C-425.581 -5.33192 -370.803 -21.009 -317.83 -36.1835C-265.261 -51.2301 -210.888 -66.8084 -168.899 -111.311C-126.91 -155.814 -114.412 -211.111 -102.343 -264.572C-90.1841 -318.459 -77.595 -374.152 -35.0121 -419.285L-32.7704 -417.158C-74.7736 -372.64 -87.2577 -317.358 -99.3265 -263.897C-111.485 -210.011 -124.075 -154.317 -166.657 -109.185L-166.642 -109.171Z" fill="#E6ECF9" fill-opacity="0.43"/>
<path d="M-181.678 -123.431C-224.261 -78.2983 -279.038 -62.6213 -332.011 -47.4468C-384.58 -32.4002 -438.953 -16.8219 -480.943 27.6811C-522.932 72.184 -535.43 127.481 -547.499 180.942C-553.968 209.589 -560.657 239.219 -571.808 266.946L-574.678 265.785C-563.636 238.295 -556.958 208.796 -550.53 180.253C-538.356 126.38 -525.782 70.6729 -483.199 25.5406C-440.616 -19.5917 -385.838 -35.2688 -332.865 -50.4433C-280.297 -65.4899 -225.908 -81.0539 -183.919 -125.557C-141.93 -170.06 -129.432 -225.357 -117.378 -278.832C-105.204 -332.704 -92.6301 -388.412 -50.0473 -433.544L-47.8056 -431.418C-89.8088 -386.9 -102.293 -331.618 -114.362 -278.157C-126.536 -224.285 -139.11 -168.577 -181.693 -123.445L-181.678 -123.431Z" fill="#E6ECF9" fill-opacity="0.43"/>
<path d="M-196.725 -137.704C-239.307 -92.5718 -294.085 -76.8947 -347.058 -61.7202C-399.627 -46.6736 -454 -31.0954 -495.989 13.4076C-537.978 57.9106 -550.477 113.207 -562.546 166.668C-569.014 195.315 -575.703 224.946 -586.855 252.672L-589.724 251.512C-578.683 224.022 -572.005 194.523 -565.577 165.98C-553.403 112.107 -540.829 56.3995 -498.246 11.2672C-455.663 -33.8651 -400.885 -49.5422 -347.912 -64.7167C-295.343 -79.7633 -240.97 -95.3415 -198.981 -139.844C-156.992 -184.348 -144.494 -239.644 -132.425 -293.105C-120.251 -346.978 -107.677 -402.685 -65.0942 -447.818L-62.8524 -445.691C-104.856 -401.174 -117.34 -345.892 -129.409 -292.431C-141.582 -238.558 -154.157 -182.851 -196.739 -137.718L-196.725 -137.704Z" fill="#E6ECF9" fill-opacity="0.43"/>
<path d="M-211.764 -151.966C-254.346 -106.833 -309.124 -91.1565 -362.097 -75.9819C-414.666 -60.9353 -469.039 -45.3571 -511.028 -0.854097C-553.018 43.6489 -565.516 98.9457 -577.585 152.407C-584.053 181.053 -590.743 210.684 -601.894 238.41L-604.763 237.25C-593.722 209.76 -587.044 180.261 -580.616 151.718C-568.442 97.8453 -555.868 42.1378 -513.285 -2.99453C-470.702 -48.1268 -415.924 -63.8039 -362.951 -78.9785C-310.383 -94.025 -256.009 -109.603 -214.02 -154.106C-172.031 -198.609 -159.533 -253.906 -147.464 -307.367C-135.305 -361.254 -122.716 -416.947 -80.1332 -462.079L-77.8915 -459.953C-119.895 -415.435 -132.379 -360.153 -144.448 -306.692C-156.607 -252.806 -169.196 -197.112 -211.779 -151.98L-211.764 -151.966Z" fill="#E6ECF9" fill-opacity="0.43"/>
</g>
<path d="M785.997 488.251C799.13 499.788 813.761 495.047 822.776 484.363C831.59 473.915 829.782 456.183 819.198 447.543C808.614 438.903 791.076 440.871 782.66 451.643C774.244 462.414 775.097 480.018 785.997 488.251Z" stroke="#E5E5E5" stroke-width="2" stroke-miterlimit="10"/>
<path d="M796.295 443.266C794.339 443.677 793.169 445.91 793.375 447.902C793.721 449.894 794.74 451.705 796.262 453.032C797.12 453.878 798.581 454.636 799.404 453.756C800.073 453.04 799.662 451.888 799.763 450.912C799.937 449.224 801.621 448.193 802.763 446.938C803.905 445.682 804.191 443.138 802.548 442.727" stroke="#E5E5E5" stroke-width="2" stroke-miterlimit="10"/>
<path d="M812.302 444.178C811.29 444.481 810.436 445.17 809.925 446.097C809.414 447.024 809.287 448.115 809.57 449.136C809.883 449.777 810.094 450.463 810.197 451.169C810.197 452.739 808.376 453.545 806.897 454.066C804.263 454.994 801.376 456.753 801.215 459.548C802.845 460.365 804.815 459.767 806.448 458.947C808.081 458.126 809.685 457.078 811.505 456.987C813.325 456.897 815.379 458.309 815.131 460.119C815.661 461.101 817.31 460.464 817.675 459.408C818.04 458.352 817.707 457.189 817.815 456.077C817.995 454.21 821.615 452.613 823.468 452.367" stroke="#E5E5E5" stroke-width="2" stroke-miterlimit="10"/>
<path d="M826.993 459.066C826.951 460.911 826.337 462.697 825.236 464.176C824.135 465.655 822.603 466.754 820.851 467.319C818.978 467.883 816.939 467.799 815.119 468.516C813.299 469.233 811.707 471.277 812.497 473.07C813.179 474.619 815.135 475.039 816.497 476.045C817.94 477.114 818.705 478.868 819.961 480.15C821.217 481.432 823.555 482.092 824.69 480.699" stroke="#E5E5E5" stroke-width="2" stroke-miterlimit="10"/>
<path d="M777.363 467.781C779.21 472.494 783.563 476.153 788.023 478.519C790.969 480.081 794.453 481.087 796.373 483.819C798.473 486.811 798.628 492.414 801.114 495.097" stroke="#E5E5E5" stroke-width="2" stroke-miterlimit="10"/>
<path d="M803.91 494.396C804.21 490.924 806.118 486.51 805.944 483.028C805.77 479.547 802.844 475.751 799.474 476.605C797.712 477.052 796.179 478.682 794.397 478.327C793.672 478.098 793.045 477.63 792.617 477C792.19 476.37 791.986 475.614 792.039 474.854C792.185 473.334 792.656 471.864 793.419 470.542C794.675 467.911 795.81 465.227 796.825 462.49C797.224 461.651 797.374 460.714 797.258 459.792C797.219 459.567 797.135 459.352 797.013 459.16C796.89 458.967 796.731 458.801 796.544 458.67C796.357 458.54 796.146 458.448 795.923 458.399C795.701 458.351 795.471 458.347 795.247 458.388C794.584 458.611 794.236 459.323 793.709 459.783C792.317 461.002 790.057 460.167 788.803 458.805C787.549 457.444 786.803 455.648 785.42 454.416C784.037 453.184 781.491 453.956 780.508 455.525" stroke="#E5E5E5" stroke-width="2" stroke-miterlimit="10"/>
</g>
<rect x="1" y="300" width="1366" height="1" fill="white" fill-opacity="0.04"/>
<path d="M906.253 146.957C905.97 146.674 906.319 146.194 906.424 145.808C908.272 139 910.184 120.045 915.527 101.5C915.691 100.615 916.196 99.8297 916.933 99.3151C917.614 99.0356 918.365 98.976 919.081 99.1447C930.521 100.666 941.73 103.601 952.452 107.883C952.832 108.037 953.143 108.325 953.325 108.693C953.507 109.061 953.548 109.483 953.44 109.879C949.573 124.128 945.467 138.309 941.12 152.421C940.99 152.8 940.726 153.119 940.378 153.316C940.029 153.513 939.621 153.575 939.23 153.491C928.214 151.715 906.794 147.501 906.253 146.957Z" stroke="#E5E5E5" stroke-width="2" stroke-miterlimit="10"/>
<path d="M912.402 136.74C920.879 138.938 929.436 140.786 938.072 142.286" stroke="#E5E5E5" stroke-width="2" stroke-miterlimit="10"/>
<path d="M914.941 126.984C924.133 129.232 931.209 131.023 939.801 133.023" stroke="#E5E5E5" stroke-width="2" stroke-miterlimit="10"/>
<path d="M917.461 118.76L943.915 124.424" stroke="#E5E5E5" stroke-width="2" stroke-miterlimit="10"/>
<path d="M919.945 109.43C928.042 111.034 938.062 113.6 946.158 115.205" stroke="#E5E5E5" stroke-width="2" stroke-miterlimit="10"/>
<path d="M923.02 99.7834C923.345 98.7428 923.68 97.7011 924.026 96.6583C924.206 95.7797 924.708 95.0005 925.432 94.4735C926.113 94.1942 926.863 94.1343 927.579 94.3023C939.02 95.8239 950.23 98.7593 960.951 103.041C961.331 103.195 961.642 103.484 961.824 103.852C962.006 104.22 962.047 104.642 961.939 105.038C958.075 119.287 953.968 133.467 949.619 147.579C949.5 147.966 949.238 148.293 948.886 148.492C948.535 148.691 948.12 148.748 947.728 148.649C946.373 148.307 944.841 147.926 943.195 147.517" stroke="#E5E5E5" stroke-width="2" stroke-miterlimit="10"/>
<path d="M1219 640.471C1230.82 658.761 1239.39 678.219 1251.21 696.508C1253.49 689.876 1259.11 681.6 1262.24 675.415" stroke="#E5E5E5" stroke-width="2" stroke-miterlimit="10"/>
<path d="M1220.13 640.83C1237.9 656.806 1255.71 670.508 1274.75 684.53C1274.55 679.355 1272.94 673.139 1272.05 668.043" stroke="#E5E5E5" stroke-width="2" stroke-miterlimit="10"/>
<path d="M1219.05 639.684C1232.63 646.01 1243.54 650.977 1255.62 658.087C1261.38 661.473 1265.87 664.25 1271.52 667.857" stroke="#E5E5E5" stroke-width="2" stroke-miterlimit="10"/>
<path d="M1272.2 668.39C1276.61 664.152 1282.59 661.613 1287.85 658.793" stroke="#E5E5E5" stroke-width="2" stroke-miterlimit="10"/>
<path d="M1219.92 639.688C1242.88 644.627 1265.53 650.96 1287.72 658.651" stroke="#E5E5E5" stroke-width="2" stroke-miterlimit="10"/>
<path d="M1286.85 697.971C1296.27 711.214 1296.33 730.438 1286.99 743.737C1284.74 746.94 1281.84 749.916 1278.1 751.063C1274.36 752.21 1269.7 750.987 1267.9 747.514C1266.1 744.041 1267.7 739.593 1270.57 736.953C1275.49 732.422 1283.6 732.333 1289.11 736.126C1294.61 739.919 1297.44 746.955 1296.94 753.636C1296.45 760.318 1292.93 766.546 1288.07 771.14" stroke="#E5E5E5" stroke-width="2" stroke-miterlimit="10" stroke-linecap="round" stroke-dasharray="3.14 5.24"/>
</g>
<defs>
<linearGradient id="paint0_linear_731_3714" x1="1295.35" y1="-19.9542" x2="1303.56" y2="514.571" gradientUnits="userSpaceOnUse">
<stop stop-color="#042D6D" stop-opacity="0"/>
<stop offset="1" stop-color="#042D6D" stop-opacity="0.14"/>
</linearGradient>
</defs>
</svg>
