<svg width="528" height="559" viewBox="0 0 528 559" fill="none" xmlns="http://www.w3.org/2000/svg">
<path d="M202.613 372.127H339.869C339.869 372.127 339.797 373.287 339.869 446.254C327.352 446.039 318.605 484.039 269.955 481.869C204.708 479.893 202.613 446.254 202.613 446.254V372.127Z" fill="#003DA9"/>
<path d="M201.848 367.091L339.872 372.126C339.872 372.126 339.031 344.08 339.104 417.047C267.03 435.201 201.848 399.184 201.848 399.184V367.091Z" fill="#004CD4"/>
<path d="M105.965 158.721C104.768 190.94 100.666 322.841 227.952 384.221C266.158 404.385 410.521 475.938 437.802 339.004C441.604 318.481 442.388 215.29 417.115 137.09C382.878 162.08 105.965 158.721 105.965 158.721Z" fill="url(#paint0_radial_871_208)"/>
<path d="M265.22 194.045C352.472 189.463 422.044 163.587 420.615 136.25C419.185 108.912 347.294 90.4652 260.042 95.0473C172.79 99.6293 103.218 125.505 104.647 152.843C106.077 180.18 177.968 198.627 265.22 194.045Z" fill="white"/>
<path d="M262.623 100.301C340.781 96.1962 405.101 111.237 406.286 133.895C407.471 156.553 345.072 178.249 266.914 182.353C188.757 186.457 124.436 171.417 123.251 148.759C122.066 126.101 184.465 104.405 262.623 100.301Z" fill="#0043B9"/>
<path opacity="0.276" d="M375.688 183.852C375.688 183.852 398.452 222.15 405.582 272.167C412.712 322.184 404.208 383.908 404.208 383.908" stroke="#7DA4D9" stroke-width="6" stroke-linecap="round"/>
<path opacity="0.276" d="M277.93 249.459C277.93 249.459 294.699 254.878 318.986 244.607C343.274 234.336 349.333 208.785 375.078 208.377" stroke="#7DA4D9" stroke-width="6" stroke-linecap="round"/>
<path opacity="0.276" d="M394.684 195.874C394.684 195.874 400.541 188.704 406.111 185.131C409.354 183.011 413.098 181.787 416.965 181.584" stroke="#7DA4D9" stroke-width="6" stroke-linecap="round"/>
<path d="M219.602 243.102C250.574 255.512 266.713 260.304 270.885 261.767C275.056 263.231 298.177 270.051 320.803 256.418C343.428 242.784 421.901 191.359 425.531 187.955C429.291 184.552 445.141 183.398 445.435 196.511C445.729 209.623 445.435 253.785 445.435 253.785C446.058 260.651 442.679 261.901 434.358 268.163C426.036 274.426 328.693 338.51 328.693 338.51C321.023 343.485 305.972 344.77 294.665 341.543C283.359 338.316 223.023 318.956 223.023 318.956L219.602 243.102Z" fill="#002463"/>
<path d="M219.602 243.101C250.575 255.512 266.713 260.303 270.885 261.767C275.057 263.23 298.177 270.05 320.803 256.417C343.429 242.784 421.567 192.579 425.197 189.175C428.54 186.842 444.222 181.584 445.434 196.51C445.516 200.238 447.819 175.943 424.192 186.554C391.889 206.51 351.883 233.344 319.904 252.924C303.041 263.091 281.648 261.829 272.102 258.572C255.506 252.478 223.621 241.088 221.671 240.137C218.639 239.079 217.19 241.824 219.602 243.101Z" fill="#01173F"/>
<path d="M201.041 321.938C221.438 315.297 230.256 286.115 220.737 256.758C211.218 227.4 186.966 208.985 166.569 215.626C146.172 222.267 137.354 251.449 146.873 280.807C156.392 310.164 180.644 328.579 201.041 321.938Z" fill="#76AEF8"/>
<path d="M206.206 300.491C222.824 295.08 229.945 271.111 222.112 246.954C214.279 222.797 194.457 207.599 177.839 213.01C161.221 218.421 154.1 242.39 161.933 266.547C169.766 290.704 189.588 305.901 206.206 300.491Z" fill="#1B69D6"/>
<path d="M209.775 286.686C222.648 282.495 228.152 263.887 222.068 245.124C215.983 226.361 200.616 214.548 187.742 218.739C174.869 222.93 169.366 241.539 175.45 260.302C181.534 279.065 196.902 290.877 209.775 286.686Z" fill="#003EA0"/>
<path d="M198.517 338.186L198.513 338.186C191.973 338.688 185.405 337.667 179.325 335.201C172.601 332.493 166.401 328.628 161.004 323.782C154.92 318.372 149.625 312.131 145.276 305.243C140.448 297.649 136.611 289.466 133.858 280.895C130.762 271.457 129.025 261.625 128.7 251.695C128.561 247.127 128.768 242.555 129.322 238.018C129.84 233.755 130.714 229.544 131.934 225.427C133.075 221.575 134.581 217.841 136.432 214.277C138.167 210.933 140.272 207.794 142.706 204.92C145.032 202.18 147.706 199.756 150.66 197.71C155.909 194.085 162.009 191.889 168.36 191.336C174.901 190.835 181.469 191.857 187.55 194.323C194.274 197.031 200.474 200.895 205.87 205.741C211.955 211.151 217.249 217.392 221.599 224.28C226.427 231.874 230.264 240.056 233.017 248.627C236.113 258.065 237.849 267.898 238.174 277.827C238.313 282.395 238.106 286.968 237.553 291.504C237.035 295.767 236.161 299.979 234.941 304.095C233.8 307.947 232.294 311.681 230.443 315.245C228.706 318.59 226.601 321.728 224.165 324.602C221.839 327.342 219.166 329.766 216.214 331.812C210.965 335.436 204.866 337.632 198.516 338.185L198.517 338.186ZM171.81 215.024C169.87 215.194 167.955 215.584 166.102 216.186C161.321 217.772 157.08 220.672 153.863 224.554C150.373 228.783 147.806 233.698 146.329 238.982C144.602 244.984 143.845 251.225 144.087 257.467C144.593 270.848 148.622 283.857 155.765 295.174C158.822 300.027 162.542 304.425 166.819 308.241C170.606 311.656 174.96 314.381 179.683 316.294C183.948 318.033 188.558 318.755 193.149 318.404C195.09 318.234 197.005 317.844 198.858 317.242C203.639 315.656 207.879 312.756 211.097 308.874C214.587 304.646 217.154 299.733 218.632 294.45C220.359 288.448 221.116 282.207 220.873 275.965C220.636 268.974 219.41 262.052 217.23 255.407C215.289 249.37 212.587 243.606 209.189 238.254C206.134 233.402 202.415 229.004 198.14 225.187C194.353 221.773 189.999 219.048 185.276 217.135C181.011 215.396 176.401 214.673 171.81 215.024Z" fill="white"/>
<path d="M332.595 283.969C332.979 298.13 332.911 305.153 332.94 307.603C332.969 310.052 334.239 315.8 344.11 309.272C353.98 302.743 428.559 253.064 428.559 253.064C429.252 252.749 433.23 250.305 433.248 244.304C433.265 238.304 433.642 220.009 433.642 220.009C433.745 218.696 433.981 210.636 426.839 214.423C419.697 218.211 336.775 273.146 336.775 273.146C334.378 274.928 332.371 276.259 332.595 283.969Z" fill="#1251C1"/>
<path d="M336.166 285.881C336.55 300.042 336.482 307.066 336.51 309.515C336.539 311.964 337.81 317.712 347.68 311.184C357.55 304.655 432.13 254.976 432.13 254.976C432.822 254.661 436.8 252.217 436.818 246.216C436.836 240.216 437.212 221.921 437.212 221.921C437.315 220.608 437.552 212.548 430.41 216.336C423.267 220.123 340.345 275.058 340.345 275.058C337.949 276.84 335.941 278.171 336.166 285.881Z" fill="#ABC9FF"/>
<path d="M351.017 300.813C354.709 300.813 357.701 295.215 357.701 288.31C357.701 281.404 354.709 275.807 351.017 275.807C347.325 275.807 344.332 281.404 344.332 288.31C344.332 295.215 347.325 300.813 351.017 300.813Z" fill="white"/>
<path d="M419.126 254.639C422.818 254.639 425.811 249.041 425.811 242.136C425.811 235.231 422.818 229.633 419.126 229.633C415.434 229.633 412.441 235.231 412.441 242.136C412.441 249.041 415.434 254.639 419.126 254.639Z" fill="white"/>
<path d="M351.014 300.813C350.551 300.813 350.093 300.728 349.661 300.561C352.336 298.806 354.133 294.064 354.133 288.759C354.167 286.033 353.648 283.329 352.608 280.81C351.638 278.605 350.286 277.079 348.801 276.508C349.453 276.06 350.223 275.816 351.014 275.807C354.7 275.807 357.699 281.416 357.699 288.306C357.699 295.197 354.7 300.813 351.014 300.813Z" fill="#EBEBEB"/>
<path d="M419.127 254.64C418.664 254.639 418.206 254.554 417.774 254.387C420.449 252.632 422.246 247.891 422.246 242.585C422.28 239.859 421.761 237.155 420.722 234.636C419.751 232.431 418.4 230.905 416.914 230.334C417.566 229.886 418.336 229.643 419.127 229.633C422.813 229.633 425.812 235.242 425.812 242.133C425.812 249.023 422.813 254.64 419.127 254.64Z" fill="#EBEBEB"/>
<path d="M118.207 65.5986C119.194 63.9892 119.643 60.3193 118.207 51.8301C123.721 54.6895 126.263 54.3219 129.525 54.3219C132.787 54.3219 139.95 55.3079 139.903 59.0161C136.556 65.9089 130.182 73.7127 130.182 73.7127L118.207 65.5986Z" fill="#FEC1E2"/>
<path d="M70.2429 150.13C63.8916 146.424 104.894 80.5895 114.932 65.6127C123.672 65.3162 131.629 70.0586 131.978 78.6786C124.151 93.6031 102.188 146.565 102.188 146.565C102.188 146.565 76.5941 153.837 70.2429 150.13Z" fill="#9AB7FD"/>
<path d="M156.652 136.036C159.963 136.036 165.602 137.677 167.953 141.386C170.303 145.095 173.804 133.296 156.652 136.036Z" fill="#B8DEFF"/>
<path d="M101.211 147.654C103.996 148.427 99.8835 141.438 104.04 141.128C108.196 140.817 112.947 140.478 110.096 128.88C110.952 128.215 111.968 127.787 113.042 127.641C113.042 127.641 116.128 127.271 108.409 117.531C107.97 115.173 107.937 108.312 107.053 107.263C102.882 104.008 86.7829 92.4891 83.9888 104.091C81.1947 115.693 82.1138 134.719 82.1138 134.719L81.3398 143.408V145.076C85.4596 145.23 98.4264 146.882 101.211 147.654Z" fill="#FEC9DD"/>
<path d="M103.713 121.231C104.622 121.231 105.359 120.492 105.359 119.581C105.359 118.67 104.622 117.932 103.713 117.932C102.803 117.932 102.066 118.67 102.066 119.581C102.066 120.492 102.803 121.231 103.713 121.231Z" fill="#655A5E"/>
<path d="M98.543 115.339C98.543 115.339 100.448 113.086 102.212 112.97C103.976 112.854 105.597 114.868 105.597 114.868" stroke="#625258" stroke-width="3" stroke-linecap="round"/>
<path d="M96.9426 125.786C97.3861 122.495 97.2369 117.975 94.4803 112.081C91.7237 106.187 92.8034 104.242 97.7017 105.608C102.6 106.974 105.17 107.631 106.921 107.176C108.671 106.72 113.474 101.675 106.125 96.3696C107.9 96.3369 108.231 90.1351 104.684 89.457C104.498 90.1204 100.863 94.02 96.2447 94.02C91.6268 94.02 67.5148 87.5487 70.4107 109.96C62.1321 116.524 64.4019 124.784 70.4107 128.424C76.4196 132.063 75.588 136.803 72.0242 137.91C69.7226 139.021 74.1952 143.575 76.9412 138.841C76.5996 144.576 81.6296 147.386 82.1245 139.762C84.506 141.559 87.4956 142.467 87.6342 144.231C88.999 143.565 91.2119 139.752 90.0901 134.561C91.4421 133.367 92.9135 132.316 94.4811 131.425C89.6643 130.875 86.8172 128.702 88.7055 124.232C90.5937 119.761 96.4436 120.941 96.9426 125.786Z" fill="black"/>
<path d="M66.4329 559C65.6347 558.994 64.8622 558.776 64.2401 558.381C63.386 557.817 62.7003 557.111 62.232 556.314C69.8723 528.586 79.5518 489.772 79.649 489.383L32.5376 480.953L14.3061 546.199C14.2816 546.945 13.9991 547.671 13.4891 548.299C12.9336 549.005 12.2289 549.631 11.4059 550.149C9.76975 551.247 7.72086 551.886 5.5776 551.969C4.9749 551.985 4.37417 551.906 3.81072 551.736C3.24727 551.566 2.73249 551.309 2.29665 550.979C1.25911 550.052 0.683094 548.858 0.675781 547.62C3.45348 540.708 7.85123 527.599 13.7473 508.662C18.4669 493.513 24.1514 474.619 30.6439 452.505C41.7114 414.821 51.3933 380.462 51.4913 380.119L62.232 377.208L56.3278 395.653L98.6256 402.542L110.646 372.55L124.405 366C124.323 366.289 111.797 411.266 99.1754 457.09C91.8521 483.681 86.0164 505.041 81.8303 520.58C76.6017 539.999 73.9457 550.32 73.9457 551.255C73.9131 552.095 73.6938 552.923 73.2979 553.703C72.8666 554.598 72.2934 555.447 71.592 556.228C70.0087 557.991 68.1281 559 66.4329 559ZM43.3518 441.49L34.4861 474.044L80.8083 482.631L90.2394 450.06L43.3518 441.49ZM53.8564 401.611L45.2979 433.576L92.1102 442.823L100.777 410.896L53.8564 401.611Z" fill="#0035AE"/>
<path d="M85.9532 415.326C85.76 422.21 89.0707 427.493 99.3509 426.418C109.631 425.344 127.185 402.285 125.095 392.539C119.724 398.1 102.969 431.039 85.9532 415.326Z" fill="#2C63CA"/>
<path d="M87.6797 396.103C87.6797 403.801 81.3324 421.031 92.9505 421.471C104.569 421.911 108.053 413.127 113.367 408.971C118.68 404.815 134.809 386.441 118.446 384.008C106.923 385.835 87.6797 396.103 87.6797 396.103Z" fill="#C1DAF9"/>
<path d="M122.286 244.35C126.702 265.318 135.753 302.814 134.207 314.32C132.662 325.827 123.282 401.823 103.22 400.944C95.1481 398.434 78.5161 401.972 86.2216 373.192C90.8477 364.217 87.3427 356.805 90.0593 351.308C92.7759 345.811 94.7995 329.51 93.9149 325.251C104.353 314.811 120.362 259.244 122.286 244.35Z" fill="#387FFB"/>
<path d="M122.286 244.35C124.916 256.84 125.384 309.935 100.739 329.993C96.4249 344.549 93.3935 370.25 90.0581 379.322C87.5486 386.148 83.9637 397.292 103.22 400.944C95.1481 398.434 78.5161 401.972 86.2216 373.192C90.8477 364.217 87.3427 356.805 90.0593 351.308C92.7759 345.811 94.7995 329.51 93.9149 325.251C104.353 314.811 120.362 259.244 122.286 244.35Z" fill="#2965DF"/>
<path d="M53.3796 299.9C50.7991 311.134 53.4611 325.902 53.3796 331.664C53.298 337.426 41.8581 352.834 36.9344 360.862C32.0107 368.89 15.2008 393.852 27.7036 410.219C38.6288 423.372 53.9426 413.034 59.6254 393.379C65.3081 373.723 79.7434 354.878 82.2912 349.548C84.8391 344.219 88.304 338.536 85.9323 320.813C76.4029 315.765 63.3214 296.856 53.3796 299.9Z" fill="#387FFB"/>
<path d="M27.6992 410.219C38.6244 423.372 53.9382 413.034 59.6209 393.379C65.3037 373.723 79.7394 354.878 82.2864 349.549C84.8334 344.22 88.2996 338.536 85.9278 320.813C83.2879 319.415 82.3036 333.19 78.8345 343.64C77.2406 348.443 68.0996 355.341 66.729 364.799C57.4744 390.125 49.9156 414.046 27.6992 410.219Z" fill="#2961D8"/>
<path d="M56.543 331.133C61.2326 327.65 68.2189 326.24 73.5689 330.373C77.0226 333.364 72.8109 336.827 68.6186 334.167C64.4262 331.507 62.4564 330.057 56.543 331.133Z" fill="#1651C9"/>
<path d="M55.5234 328.32C56.3657 324.955 60.6533 321.995 66.2789 325.143C63.7246 324.728 58.2001 325.245 55.5234 328.32Z" fill="#1651C9"/>
<path d="M21.0938 431.069C18.5663 421.119 20.1089 411.579 27.9718 411.456C35.8346 411.334 35.008 422.477 31.9261 437.401C30.9094 445.858 35.9015 466.059 57.6964 449.21C52.5094 456.212 38.248 462.298 31.9261 451.503C25.6042 440.709 32.3092 434.202 33.0675 423.993C33.8257 413.784 30.93 412.406 27.0084 412.701C23.0867 412.996 19.3955 419.47 21.0938 431.069Z" fill="#3B73EC"/>
<path d="M27.8984 411.456C40.5186 407.067 45.4718 409.407 45.0486 419.456C44.6255 429.506 38.906 440.175 48.9572 439.866C59.0083 439.557 60.8607 442.508 57.6362 449.287C52.878 454.129 41.1963 458.653 36.9958 453.579C32.7954 448.505 30.4217 442.55 32.5757 433.718C33.8305 426.126 36.7413 411.952 27.8984 411.456Z" fill="#BDD9FF"/>
<path d="M21.6002 432.573C22.2174 438.054 23.0924 441.573 19.5572 448.207C17.695 452.281 20.3463 456.213 26.1856 455.302C30.0502 454.836 33.9697 455.329 37.5999 456.736C34.9094 455.337 29.0059 451.624 29.2537 441.111C29.407 433.869 32.8966 431.348 33.0198 422.773C33.0491 416.776 33.0872 412.857 28.0184 412.662C25.2724 412.78 18.6423 415.168 21.6002 432.573Z" fill="#033AB1"/>
<path d="M107.332 149.477C97.2303 145.343 85.0113 145.027 80.1504 145.027C75.2895 145.027 78.6086 149.477 78.6086 149.477C78.6086 149.477 64.3267 148.088 61.1152 164.084C57.9037 180.079 61.187 207.154 61.1152 216.147C61.0435 225.139 50.4846 250.047 26.746 270.3C3.0074 290.552 13.5314 306.238 13.5314 306.238C13.5314 306.238 16.9875 296.631 26.746 296.22C36.5044 295.809 47.1988 296.759 55.3201 300.386C63.4414 304.014 82.2253 326.559 93.8124 326.833C101.703 315.93 126.254 286.796 122.484 238.713C121.017 194.087 125.065 184.366 138.186 175.092C151.306 165.819 174.889 169.178 181.764 142.368C188.639 115.558 196.394 82.6409 196.394 82.6409C194.851 82.6409 190.588 75.9605 181.764 82.6409C172.94 89.3214 158.504 125.443 157.804 133.072C150.058 134.974 142.672 141.631 133.989 142.368C125.306 143.105 107.774 143.643 107.332 149.477Z" fill="#D6E4FF"/>
<path d="M84.2318 255.994C83.2387 261.934 79.2087 265.135 86.7936 267.436C94.3784 269.737 102.019 274.552 109.436 269.736C110.776 266.274 110.192 263.935 104.788 263.935C99.3842 263.935 86.6157 261.517 84.2318 255.994Z" fill="#B8DEFF"/>
<path d="M107.332 219.389C103.439 222.025 92.0298 225.821 78.7965 221.304C70.2854 218.511 68.5766 229.369 78.7965 230.494C89.0164 231.619 102.877 229.771 107.332 219.389Z" fill="#B8DEFF"/>
<path d="M105.271 217.306C99.4005 217.306 94.4776 213.746 93.3672 209.821C92.2567 205.895 84.4722 203.81 85.2093 209.821C85.9463 215.831 94.6187 220.971 105.271 217.306Z" fill="#B8DEFF"/>
<path d="M180.262 86.1177C176.558 76.1359 180.18 73.149 182.618 69.337C185.056 65.525 186.637 59.8046 187.37 57.8357C188.103 55.8668 192.355 58.316 189.255 66.105C192.702 66.8231 195.829 64.9058 198.266 60.3373C200.702 55.7688 206.676 58.4238 206.652 61.6884C206.627 64.8885 201.951 66.7774 201.951 66.7774C203.53 66.8967 204.084 68.748 202.853 71.4203C204.133 73.8451 202.097 76.6302 199.755 78.832C197.414 81.0337 196.136 80.9094 196.136 83.3726C193.18 82.0205 188.801 79.3761 180.262 86.1177Z" fill="#FAC0D8"/>
<path d="M147.804 65.9573C146.642 68.0864 139.972 68.1077 136.39 64.9933C131.479 62.5865 128.655 68.9041 120.127 59.687C111.599 50.4699 111.511 47.6913 113.055 42.3107C114.599 36.9301 111.397 26.1134 113.798 23.1339C116.462 19.8486 119.755 17.1308 123.483 15.1406C127.381 12.4446 126.628 9.9765 127.793 6.87036C128.957 3.76421 136.943 3.13351 140.216 5.44065C143.49 6.59994 151.982 6.50265 160.712 1.93739C169.443 -2.62788 181.939 3.40801 183.337 5.44065C184.735 7.47329 186.687 13.0965 196.698 16.9036C206.709 20.7108 205.317 27.0187 204.702 30.2204C204.088 33.4221 202.334 36.6907 204.702 41.5877C207.071 46.4846 203.445 49.0222 203.445 50.6897C203.383 54.4478 197.412 64.8772 185.987 65.9531C174.562 67.0291 168.934 68.7612 162.895 68.7922C156.856 68.8232 156.291 68.2268 153.964 65.9531C151.636 63.6795 147.804 65.9573 147.804 65.9573Z" fill="#FDA3E3"/>
<path d="M151.258 51.105C150.367 41.7351 139.225 35.8748 130.636 30.8357C122.048 25.7966 123.913 15.1113 123.913 15.1113C123.913 15.1113 123.803 24.6701 130.636 23.4797C129.285 24.2967 128.018 29.6936 139.578 34.8707C146.501 38.1574 150.303 34.8707 150.303 34.8707C148.749 37.4769 148.634 40.5079 150.303 41.5936C151.972 42.6794 151.258 51.105 151.258 51.105Z" fill="#D06CC4"/>
<path d="M123.75 45.0427C123.791 41.9283 121.324 38.9202 116.43 39.4626C118.173 36.7593 119.365 29.2342 120.945 28.1484C120.017 31.0528 118.84 34.2994 120.945 36.1237C123.05 37.948 124.138 40.6114 123.75 45.0427Z" fill="#D06CC4"/>
<path d="M134.53 46.9033C132.266 46.9694 130.063 47.6526 128.158 48.8795C126.253 50.1064 124.719 51.8307 123.719 53.8665C124.511 52.1852 124.86 48.9571 130.858 45.8739C133.828 43.2269 128.564 36.9394 124.29 36.6151C126.226 36.1731 132.266 36.4411 133.346 45.039C135.677 44.5872 143.783 45.1158 151.446 57.3754C155.974 63.7715 164.146 61.8402 159.451 50.1133C154.757 38.3865 153.429 39.214 153.429 39.214C155.015 39.2606 159.805 41.7336 161.225 37.0768C162.646 32.4201 158.407 20.247 147.892 23.6685C140.252 26.3645 137.277 30.6128 136.78 25.4315C136.283 20.2503 135.048 17.9431 132.377 16.9987C132.201 15.4595 134.313 17.4889 133.87 14.31C133.427 11.1311 133.462 5.99498 136.782 5.71639C137.147 5.4378 137.797 5.91477 135.967 7.04138C134.137 8.16799 135.272 15.3069 135.272 15.3069C135.272 16.0307 135.64 22.9439 141.669 23.6677C145.985 23.4226 151.96 20.0828 156.788 23.6677C160.235 25.7968 163.477 32.108 162.362 37.076C162.208 40.0858 157.433 42.4345 160.189 48.2456C162.946 54.0568 163.273 57.3336 162.999 59.8123C162.711 58.7952 160.635 60.1783 159.453 61.0476C158.27 61.9168 156.642 62.9503 153.431 61.6081C153.164 62.7824 152.453 63.8073 151.447 64.4675C151.992 63.3915 151.499 56.3387 143.734 50.5218C138.712 47.2727 137.84 46.8763 134.53 46.9033Z" fill="#D06CC4"/>
<path d="M153.297 7.45703C153.297 10.1964 150.985 17.3931 142.68 14.5958C143.885 16.1579 147.241 16.5074 147.241 16.5074C146.507 17.9632 147.241 21.1895 147.241 21.1895C147.241 21.1895 148.879 17.2297 152.378 15.3637C155.876 13.4977 153.898 8.45047 153.297 7.45703Z" fill="#D775CC"/>
<path d="M154.402 5.63344C157.545 9.42013 161.822 8.07538 166.179 10.5353C170.537 12.9952 173.806 17.3611 176.119 22.7082C178.432 27.9164 182.739 29.4892 184.056 30.7963C185.373 32.1035 186.405 33.0626 185.723 42.609C185.918 49.0092 188.552 47.63 189.293 51.1683C190.033 54.7066 185.723 57.0399 185.723 57.0399C185.723 57.0399 189.936 54.1658 190.332 55.6593C190.728 57.1527 191.881 61.8431 189.293 64.1559C192.196 63.0792 194.684 55.9445 192.016 50.6595C189.347 45.3745 188.517 41.4888 188.452 35.252C188.386 29.0152 180.286 27.9989 178.015 23.1926C175.745 18.3864 170.531 11.8587 168.551 10.5295C167.04 7.69216 169.774 4.95774 162.477 5.62766C155.18 6.29758 158.201 6.31643 154.402 5.63344Z" fill="#D26BC4"/>
<path d="M161.245 26.3616C162.285 24.3918 163.701 22.0945 159.309 18.9336C163.474 21.5242 171.528 17.5684 176.373 27.1034C173.836 23.5373 169.425 21.3028 163.659 21.6648C164.248 24.1328 162.295 26.217 161.245 26.3616Z" fill="#D26BC4"/>
<path d="M179.247 66.1495C173.602 61.1145 166.97 43.4319 182.5 45.6884C180.858 44.1999 177.65 43.3003 174.643 43.3003C171.636 43.3003 169.493 38.7751 170.051 34.0742C168.518 36.2425 169.671 40.9213 172.362 43.7595C173.836 45.4963 170.452 47.2047 169.211 51.069C167.97 54.9333 169.969 63.2541 179.247 66.1495Z" fill="#D26BC4"/>
<path d="M202.027 47.5567C200.948 43.337 195.718 37.5994 191.9 36.3642C188.083 35.1289 190.695 29.8063 187.373 26.143C184.05 22.4797 185.716 16.2397 191.9 18.0803C189.424 17.1637 184.271 19.224 188.729 26.143C193.187 33.062 189.523 33.8079 193.008 35.0938C196.494 36.3798 200.832 40.5601 202.027 47.5567Z" fill="#D26BC4"/>
<defs>
<radialGradient id="paint0_radial_871_208" cx="0" cy="0" r="1" gradientUnits="userSpaceOnUse" gradientTransform="translate(182.78 286) rotate(30.4567) scale(296.91 321.722)">
<stop stop-color="#76AEF8"/>
<stop stop-color="#003EA0"/>
<stop offset="1" stop-color="#1B69D6"/>
</radialGradient>
</defs>
</svg>
