<svg width="121" height="121" viewBox="0 0 121 121" fill="none" xmlns="http://www.w3.org/2000/svg">
<path d="M34.4735 53.0129C37.2735 66.2129 50.9735 65.5129 57.4735 63.5129V62.5137L49.9727 48.5137C49.6393 47.8468 49.1727 45.0129 49.9727 39.0129C50.7727 33.0129 48.6399 31.8462 47.4735 32.0129C41.9735 33.5129 31.6735 39.8129 34.4735 53.0129Z" fill="#F9B38A"/>
<path d="M46.1917 18.022C38.6417 19.3518 32.0832 23.1155 28.1391 28.3668C25.9755 31.2291 25.2092 33.4152 24.3303 39.0947C23.6316 43.6924 23.1809 45.27 22.0314 47.1406C21.5581 47.9069 18.8536 51.0171 15.9914 54.0597C13.1516 57.1248 10.6274 59.9871 10.4246 60.4604C9.9062 61.5422 9.92874 62.8719 10.4471 63.9988C10.988 65.1932 11.3035 65.4412 15.0448 67.8301L18.2451 69.8811L19.2818 71.8644C19.958 73.1716 20.544 74.0055 21.0172 74.2984C21.6258 74.6816 21.6934 74.8168 21.5131 75.2676C21.3553 75.6732 21.4229 76.0789 21.761 76.8227L22.2117 77.8368L21.7159 81.5555C21.3328 84.6657 21.2877 85.4996 21.5131 86.5364C22.0089 88.9704 24.1274 91.0664 26.6066 91.6299C27.8011 91.9003 28.3645 91.8327 34.63 90.841C38.3261 90.2551 41.5039 89.8269 41.6842 89.8945C41.9772 89.9846 42.0223 90.9312 42.0223 95.8444C42.0223 102.516 42.1124 102.966 43.3295 103.327C43.8929 103.507 49.1893 103.552 59.7594 103.507L75.3554 103.44L75.8738 102.921L76.3696 102.425L75.9865 100.217C75.7836 99.0222 75.4005 96.8811 75.1526 95.4613C74.5441 92.0806 74.3187 86.4462 74.6793 83.9445C74.8371 82.8853 75.2653 81.0823 75.6484 79.9328L76.3471 77.8594L82.8604 77.9045L89.3963 77.9721L89.802 79.2567C90.6359 81.9387 92.5742 84.1248 95.2111 85.3869C96.4506 85.9729 96.9915 86.0856 98.8621 86.1532C101.499 86.2659 103.37 85.7475 105.173 84.3728C107.517 82.6148 108.801 80.4287 109.229 77.4988C109.455 75.8986 109.432 75.5155 109.004 73.8477L108.531 71.9771L109.342 71.2559C111.123 69.7008 111.325 69.2049 110.627 68.2133C110.086 67.4245 108.936 67.5372 107.855 68.5063C107.381 68.9345 106.908 69.2951 106.795 69.2951C106.683 69.2951 106.232 69.0021 105.804 68.664C103.595 66.8836 101.679 66.2751 98.7269 66.4103C97.0141 66.4779 96.4281 66.6131 95.2111 67.1766C92.5742 68.4387 90.6359 70.6248 89.802 73.3068L89.3963 74.5914L83.6267 74.659L77.8571 74.7041L78.7361 72.9462C80.0883 70.2642 81.5533 66.7258 82.3646 64.2241C83.0858 61.9478 84.1676 57.2149 84.1676 56.2684C84.1676 55.7725 84.2127 55.7725 86.8496 55.7725H89.509L89.6443 56.5388C90.0049 58.8376 92.4389 61.8802 94.7828 63.0296C100.44 65.7792 106.84 63.0747 108.869 57.1248C109.41 55.4795 109.41 52.6849 108.869 51.0847L108.463 49.9127L109.725 48.7183C111.145 47.366 111.28 46.8251 110.401 45.9461C109.748 45.27 108.982 45.3376 108.057 46.1715C106.773 47.2984 106.84 47.2984 105.646 46.3969C101.499 43.1965 96.2929 43.3994 92.5516 46.8702C91.1317 48.1774 90.1175 49.8226 89.6893 51.4678L89.4414 52.5046L87.075 52.5722L84.7085 52.6398L84.7311 48.0647C84.7311 44.5488 84.6409 43.0388 84.3254 41.5062C83.8746 39.3201 82.8379 36.1873 82.004 34.5196L81.4406 33.4603L85.4523 33.5054L89.4414 33.573L89.6217 34.452C89.9147 35.8267 91.0867 37.8326 92.3488 39.0947C96.2252 42.9261 102.446 42.9261 106.322 39.0722C109.072 36.3226 109.996 32.5363 108.801 28.8626L108.463 27.7808L109.725 26.6089C111.145 25.2791 111.325 24.603 110.469 23.8142C109.725 23.1155 109.162 23.2057 107.832 24.2424L106.683 25.1439L105.916 24.4678C101.95 20.997 95.9999 21.1998 92.2361 24.9636C91.0867 26.113 89.9147 28.1865 89.6217 29.5838L89.4414 30.4177L84.5057 30.4628L79.5474 30.5304L78.3304 29.0429C74.2736 24.0846 67.039 20.0053 59.241 18.3376C56.3562 17.7065 48.9864 17.5262 46.1917 18.022ZM58.317 21.29C62.8245 22.169 68.0082 24.3326 71.1634 26.6539C72.9664 27.9611 75.378 30.0797 75.378 30.3276C75.378 30.4403 74.1384 30.5304 72.6058 30.5304H69.8562L68.6167 29.4937C65.9798 27.3301 62.802 25.9778 59.3086 25.5496C57.438 25.3242 57.2352 25.3468 56.6943 25.7524L56.1083 26.1806L56.0407 34.8126C55.9956 42.6106 56.0181 43.4895 56.3562 43.8727C56.7168 44.2558 57.2803 44.2783 65.3487 44.2783C72.4255 44.2783 74.0257 44.2107 74.3863 43.9628C74.7469 43.6924 74.8145 43.3768 74.792 41.9795C74.7244 39.2975 74.1158 37.2691 72.2678 33.6181C72.2227 33.5279 73.4848 33.4828 75.085 33.5054L77.9698 33.573L78.9164 35.376C80.0883 37.5847 80.9447 40.154 81.373 42.7007C81.6885 44.6164 81.8012 51.1298 81.5533 52.0989C81.418 52.5947 81.3279 52.6173 78.2177 52.6173H75.0399L75.1075 50.8593C75.2427 48.1323 75.9414 48.3126 65.6868 48.3802L57.0549 48.4478L56.6041 49.0563C56.1984 49.5972 56.1759 49.755 56.4238 50.2959C56.9197 51.3552 65.0557 64.2016 65.4389 64.4946C66.0699 64.9904 66.7235 64.8101 68.0758 63.8185C70.1943 62.2634 72.0424 60.0772 73.1467 57.8234L74.1384 55.7951H77.6993L81.2377 55.7725L81.1476 56.2684C81.08 56.5613 80.9222 57.3952 80.787 58.139C80.0883 61.8802 78.5783 66.2074 76.1668 71.2559L74.499 74.7041H66.3178H58.1367L55.7702 71.053C54.4631 69.0472 53.3812 67.3343 53.3362 67.2442C53.2911 67.154 54.0123 66.861 54.9138 66.5906C57.0549 65.937 59.5115 64.6974 59.8495 64.0889C59.9848 63.8185 60.0524 63.3902 60.0073 63.1198C59.9622 62.8719 58.024 59.649 55.7026 55.9754L51.4881 49.3042V41.3034C51.4881 31.7249 51.7135 32.4236 48.6033 32.6264C44.0507 32.9194 39.3854 35.3985 36.478 39.0496C35.1934 40.6723 33.6158 43.9177 33.1199 45.9687C32.6241 48.0421 32.6241 51.7834 33.1199 53.8568C33.6158 55.9077 35.1934 59.1532 36.478 60.7759C39.2502 64.2692 43.7126 66.7033 48.1976 67.1991L49.7302 67.3794L52.953 72.3377C54.7335 75.0647 56.3787 77.4086 56.5816 77.5664C56.8971 77.7918 58.8353 77.8594 65.0557 77.8594H73.1242L72.8988 78.4454C71.186 82.9303 70.9831 90.0748 72.3354 97.1966C72.6509 98.7743 72.8988 100.127 72.8988 100.217C72.8988 100.329 66.6784 100.397 59.0607 100.397H45.2452L45.1325 94.7626C45.0198 89.7818 44.9522 89.0606 44.569 88.407C44.0281 87.4829 42.8336 86.649 42.0223 86.649C41.6842 86.649 38.574 87.0998 35.1258 87.6632C31.655 88.2267 28.4321 88.6774 27.9363 88.6774C26.0431 88.6774 24.4655 87.0773 24.443 85.1841C24.443 84.6657 24.6007 83.043 24.8036 81.5781C25.0064 80.0005 25.0965 78.3101 25.0289 77.5213C24.8261 75.5155 24.8261 75.5605 25.1416 74.7492C25.5248 73.8252 25.3445 73.4871 23.7668 72.4278C22.7752 71.7517 22.4146 71.3009 21.7159 69.9487C21.2652 69.0246 20.6341 68.033 20.3186 67.7625C20.003 67.4695 18.2902 66.2976 16.5097 65.1482C12.0247 62.2859 11.8895 62.962 18.2902 56.0881C21.0398 53.1131 23.6091 50.2959 23.9697 49.7775C25.7501 47.3435 26.6291 44.7291 27.3728 39.4328C28.0039 35.1506 28.6575 33.0321 30.0774 30.9135C33.5031 25.7975 40.0615 22.0337 47.4313 20.9519C50.3387 20.5237 55.1843 20.6589 58.317 21.29ZM101.927 25.5721C103.099 26.0905 104.226 26.8793 104.226 27.1498C104.226 27.2625 102.987 28.4119 101.477 29.6965L98.7269 32.063L97.9606 30.9135C97.5324 30.26 97.0141 29.6064 96.8338 29.4486C95.9773 28.795 94.3095 29.4711 94.3095 30.4853C94.3095 31.0262 96.8563 35.0379 97.555 35.5788C97.9156 35.8493 98.2987 35.9394 98.6368 35.8718C98.9298 35.7817 100.688 34.4294 102.536 32.8067C106.254 29.6064 106.209 29.6064 106.232 31.9277C106.277 35.6014 103.505 38.5763 99.8087 38.8242C97.6902 38.9595 96.2478 38.4862 94.7828 37.1565C92.484 35.1055 91.7628 31.9503 92.9573 29.2232C93.5658 27.8034 95.459 25.9778 96.8338 25.5045C98.2536 24.9862 100.733 25.0312 101.927 25.5721ZM62.9823 29.6289C66.5432 31.0262 69.8337 34.5646 71.0507 38.3059C71.2986 39.0496 71.5466 40.0413 71.6142 40.492L71.7494 41.3485H65.3262H58.9255V35.083C58.9255 31.6348 58.9931 28.7499 59.0607 28.6823C59.2185 28.502 61.5399 29.0655 62.9823 29.6289ZM48.5582 43.0613V50.4086L52.3896 56.4712C54.5081 59.8068 56.221 62.624 56.221 62.7141C56.221 62.9395 54.8011 63.5029 53.4038 63.841C48.5357 65.0355 43.3295 63.5029 39.7685 59.8293C33.0298 52.8877 35.0582 41.3935 43.7577 37.0889C45.2001 36.3676 47.1383 35.7591 48.0624 35.7366L48.5582 35.7141V43.0613ZM101.544 47.5463C102.716 47.9745 104.226 48.9662 104.204 49.3268C104.204 49.462 102.964 50.6114 101.454 51.8961C98.7044 54.2174 98.7044 54.2174 98.3663 53.6991C97.2169 51.9637 96.6309 51.3777 95.9548 51.3101C95.0758 51.2199 94.2194 52.189 94.4222 53.0229C94.5575 53.6089 96.5408 56.6515 97.307 57.5079C98.2085 58.5221 98.7495 58.2517 102.446 55.0739C105.105 52.7525 105.894 52.1665 106.074 52.4144C106.187 52.5947 106.232 53.4962 106.187 54.4203C106.119 55.7725 105.984 56.381 105.466 57.3276C102.671 62.4437 95.4139 62.2183 93.0024 56.9445C91.2895 53.1807 93.408 48.6506 97.4648 47.4111C98.4339 47.1181 100.53 47.1857 101.544 47.5463ZM71.9973 51.8059C71.9973 52.6849 70.938 55.7725 70.1943 57.0572C69.5407 58.2066 67.1517 60.9562 66.8137 60.9562C66.6334 60.9562 60.7285 51.6932 60.7285 51.4002C60.7285 51.3326 63.2753 51.265 66.3629 51.265H71.9973V51.8059ZM102.13 69.9712C102.761 70.2417 103.505 70.715 103.798 71.0079C104.249 71.4812 104.271 71.5939 103.978 71.8644C103.798 72.0221 102.558 73.1039 101.206 74.2534C98.4565 76.6198 98.8847 76.5973 97.4648 74.5464C96.676 73.4195 95.9097 73.149 95.0984 73.6674C94.0391 74.3661 94.1292 74.9295 95.7745 77.4988C98.0283 81.0372 98.0057 81.0372 102.491 77.1607C105.714 74.3886 105.916 74.2534 106.097 74.7492C106.209 75.0422 106.254 75.9211 106.187 76.7325C106.029 79.3018 104.451 81.5555 102.085 82.6374C100.778 83.2233 98.3438 83.336 96.9464 82.8402C94.3997 81.9612 92.4164 79.099 92.4164 76.3043C92.4389 72.2475 95.752 69.1148 99.7411 69.3852C100.417 69.4303 101.499 69.7008 102.13 69.9712Z" fill="#FF5E00"/>
</svg>
