<svg width="418" height="315" viewBox="0 0 418 315" fill="none" xmlns="http://www.w3.org/2000/svg">
<g opacity="0.6">
<path d="M28.5195 230.742L83.6463 229.969" stroke="#DCE8FF" stroke-width="11"/>
<path d="M28.5195 245.838L78.8333 245.945" stroke="#DCE8FF" stroke-width="11"/>
<path d="M28.8789 260.213L79.1927 260.32" stroke="#DCE8FF" stroke-width="11"/>
<path d="M28.8789 276.744L79.1927 276.851" stroke="#DCE8FF" stroke-width="11"/>
<rect x="38.2188" y="35.5977" width="150.942" height="10.7816" fill="#5A9BFD"/>
<rect x="28.8789" y="71.8945" width="48.8764" height="7.1877" fill="#EAF1FF"/>
<rect x="28.8789" y="99.209" width="114.284" height="7.1877" fill="#EAF1FF"/>
<path opacity="0.6" d="M28.8789 86.0918H197.97" stroke="#0043B9" stroke-width="5"/>
<path opacity="0.6" d="M28.8789 111.428L197.071 111.61" stroke="#0043B9" stroke-width="5"/>
<path opacity="0.6" d="M29.9531 139.818L198.145 140.357" stroke="#C4D9FF" stroke-width="11"/>
<path opacity="0.6" d="M29.9531 125.084L198.145 125.623" stroke="#C4D9FF" stroke-width="11"/>
<path opacity="0.6" d="M29.9531 154.553L183.769 155.046" stroke="#C4D9FF" stroke-width="11"/>
<path opacity="0.6" d="M29.9531 169.291L198.145 168.932" stroke="#C4D9FF" stroke-width="11"/>
<path opacity="0.6" d="M29.9531 183.664L165.8 183.374" stroke="#C4D9FF" stroke-width="11"/>
<path opacity="0.6" d="M29.9531 197.68L198.864 198.039" stroke="#C4D9FF" stroke-width="11"/>
<path opacity="0.6" d="M29.9531 209.414L198.864 209.773" stroke="#C4D9FF" stroke-width="5"/>
<path d="M417.031 285.494V265.611L221.668 266.149V283.165C221.668 283.165 221.668 310.329 191.57 311.466C161.472 312.603 161.654 283.165 161.654 283.165V266.149C160.134 250.745 154.54 219.869 115.869 218.861C82.8891 218.001 70.1445 246.087 67.8948 260.238C68.138 262.208 66.6179 270.57 66.6179 288.539C66.6179 307.346 42.8329 313.607 32.9219 313.548C145.592 314.921 376.878 311.857 392.953 310.749C413.748 309.317 417.031 293.017 417.031 285.494Z" fill="#0043B9"/>
<path d="M2.96875 116.489V287.533C2.96875 287.533 3.15701 298.684 12.1936 305.518C21.2303 312.353 32.5049 312.058 32.5049 312.058C68.2961 312.058 65.1332 294.547 68.2961 262.173C71.4589 229.799 96.159 218.948 111.22 218.828L231.144 219.547V3H2.96875V116.489Z" stroke="#0043B9" stroke-width="5"/>
<path d="M354.042 266.846C355.364 250.988 349.637 219.348 306.619 219.349C273.556 219.349 241.93 219.289 230.25 219.349" stroke="#0043B9" stroke-width="5"/>
<path d="M176.164 234.443H226.658" stroke="#DCE8FF" stroke-width="5"/>
<path d="M191.613 243.428H242.107" stroke="#DCE8FF" stroke-width="5"/>
<path d="M321.177 241.272C318.961 242.59 313.882 245.01 311.294 244.147C308.06 243.069 305.544 238.038 303.388 240.014C301.231 241.991 300.153 248.999 297.997 247.382C296.272 246.088 299.614 240.913 297.997 241.272C295.122 242.41 289.694 243.069 290.988 236.6C292.605 228.514 297.278 232.647 292.606 243.249C287.934 253.851 283.262 246.842 284.879 241.272C286.496 235.702 289.192 229.233 282.723 229.592C277.548 229.88 268.947 232.947 265.293 234.444" stroke="#C1D6FF" stroke-width="2"/>
<path d="M231.867 115.847C238.696 115.787 254.473 112.038 262.954 97.5184C273.556 79.3695 250.376 79.5492 252.172 90.6901C253.969 101.831 270.86 102.37 277.509 87.2763C282.828 75.201 281.361 59.3836 281.361 54.0977" stroke="#0043B9" stroke-width="2" stroke-dasharray="4 4"/>
<rect x="266.383" y="35.5977" width="29.0725" height="20.2626" rx="4" fill="#FD5470"/>
<path d="M272.551 42.6465L279.856 47.9477C280.565 48.4625 281.527 48.4554 282.229 47.9303L289.289 42.6465" stroke="white" stroke-width="2" stroke-linecap="round"/>
<path d="M264.211 203.895L252.891 186.285" stroke="#0043B9" stroke-width="4" stroke-linecap="round"/>
<path d="M272.95 201.963L273.02 178.738" stroke="#0043B9" stroke-width="4" stroke-linecap="round"/>
<path d="M281.405 204.36L293.883 184.771" stroke="#0043B9" stroke-width="4" stroke-linecap="round"/>
</g>
</svg>
