<svg width="1113" height="286" viewBox="0 0 1113 286" fill="none" xmlns="http://www.w3.org/2000/svg">
<path d="M39.793 142.254C39.793 142.254 162.308 257.851 166.706 257.851C171.104 257.851 424.929 26.0155 428.071 26.0156C431.212 26.0158 680.011 262.884 684.409 262.884C688.807 262.884 941.376 26.7095 943.261 26.6439C945.146 26.5783 1080.23 148.53 1080.23 148.53" stroke="url(#paint0_linear_860_207)" stroke-width="23.8747"/>
<rect x="35.5352" y="104.35" width="52.7756" height="52.7756" rx="7.53937" transform="rotate(42.3312 35.5352 104.35)" fill="#468C00"/>
<rect x="1073.04" y="107.93" width="52.7756" height="52.7756" rx="7.53937" transform="rotate(42.3312 1073.04 107.93)" fill="#27BFCD"/>
<rect x="427.637" y="80.918" width="142.975" height="142.975" rx="21.3616" transform="rotate(44.671 427.637 80.918)" fill="#1B01BB"/>
<rect x="427.616" y="77.3825" width="147.975" height="147.975" rx="23.8616" transform="rotate(44.671 427.616 77.3825)" stroke="#FBFBFB" stroke-opacity="0.58" stroke-width="5"/>
<rect x="682.531" y="0.892578" width="142.975" height="142.975" rx="21.3616" transform="rotate(45.0467 682.531 0.892578)" fill="#09E1A0"/>
<rect x="682.534" y="-2.64295" width="147.975" height="147.975" rx="23.8616" transform="rotate(45.0467 682.534 -2.64295)" stroke="white" stroke-opacity="0.58" stroke-width="5"/>
<rect x="942.191" y="83.8477" width="142.975" height="142.975" rx="21.3616" transform="rotate(46.2172 942.191 83.8477)" fill="#27BFCD"/>
<rect x="942.267" y="80.3129" width="147.975" height="147.975" rx="23.8616" transform="rotate(46.2172 942.267 80.3129)" stroke="white" stroke-opacity="0.58" stroke-width="5"/>
<rect x="170.66" y="7.19727" width="142.975" height="142.975" rx="21.3616" transform="rotate(46.2167 170.66 7.19727)" fill="#468C00"/>
<rect x="170.735" y="3.66253" width="147.975" height="147.975" rx="23.8616" transform="rotate(46.2167 170.735 3.66253)" stroke="white" stroke-opacity="0.58" stroke-width="5"/>
<g clip-path="url(#clip0_860_207)">
<path d="M167.75 104C171.013 104 174.203 103.032 176.917 101.219C179.63 99.4062 181.745 96.8293 182.994 93.8143C184.243 90.7993 184.57 87.4817 183.933 84.281C183.296 81.0803 181.725 78.1403 179.417 75.8327C177.11 73.5252 174.17 71.9537 170.969 71.3171C167.768 70.6804 164.451 71.0071 161.436 72.256C158.421 73.5048 155.844 75.6197 154.031 78.3331C152.218 81.0465 151.25 84.2366 151.25 87.5C151.254 91.8747 152.994 96.069 156.088 99.1624C159.181 102.256 163.375 103.996 167.75 104ZM167.75 76.5C169.926 76.5 172.052 77.1451 173.861 78.3538C175.67 79.5625 177.08 81.2805 177.913 83.2905C178.745 85.3005 178.963 87.5122 178.539 89.646C178.114 91.7798 177.067 93.7398 175.528 95.2782C173.99 96.8166 172.03 97.8642 169.896 98.2886C167.762 98.7131 165.55 98.4952 163.54 97.6627C161.53 96.8301 159.813 95.4202 158.604 93.6113C157.395 91.8023 156.75 89.6756 156.75 87.5C156.75 84.5826 157.909 81.7847 159.972 79.7218C162.035 77.6589 164.833 76.5 167.75 76.5Z" fill="white"/>
<path d="M167.75 109C161.188 109.007 154.897 111.617 150.257 116.257C145.617 120.897 143.007 127.188 143 133.75C143 134.479 143.29 135.179 143.805 135.695C144.321 136.21 145.021 136.5 145.75 136.5C146.479 136.5 147.179 136.21 147.695 135.695C148.21 135.179 148.5 134.479 148.5 133.75C148.5 128.645 150.528 123.748 154.138 120.138C157.748 116.528 162.645 114.5 167.75 114.5C172.855 114.5 177.752 116.528 181.362 120.138C184.972 123.748 187 128.645 187 133.75C187 134.479 187.29 135.179 187.805 135.695C188.321 136.21 189.021 136.5 189.75 136.5C190.479 136.5 191.179 136.21 191.695 135.695C192.21 135.179 192.5 134.479 192.5 133.75C192.493 127.188 189.883 120.897 185.243 116.257C180.603 111.617 174.312 109.007 167.75 109Z" fill="white"/>
</g>
<path d="M424.287 139.574C424.287 138.863 424.863 138.287 425.574 138.287H432.426C433.137 138.287 433.713 138.863 433.713 139.574V217.713H424.287V139.574Z" stroke="white" stroke-width="2.57418"/>
<path d="M410.937 224.956H430.36H445.713C449.412 224.956 450.872 221.753 450.985 220.152C451.097 218.551 450.707 212.522 446.083 211.486C441.458 210.45 439.978 215.442 439.331 217.232C438.684 219.022 437.759 211.015 432.949 211.486C428.14 211.957 428.602 217.609 427.955 217.609C427.308 217.609 425.273 210.638 421.943 211.015C419.421 211.3 417.483 214.936 416.691 216.683C416.556 216.982 416.08 216.968 415.95 216.667C415.092 214.665 413.193 211.807 410.29 211.486C406.035 211.015 404.833 216.196 405.018 220.906C405.166 224.674 409.026 225.176 410.937 224.956Z" fill="#1B01BB" stroke="white" stroke-width="2.57418"/>
<path d="M393.191 190H430.502H452.925C461.857 190 463.297 188.826 465.623 187.141C467.949 185.455 476 173.145 476 169.587C476 166.029 473.209 162.283 468.277 155.448C464.332 149.979 458.88 148.425 456.647 148.331C438.379 148.081 400.002 147.732 392.633 148.331C385.264 148.93 383.36 155.822 383.329 159.193C383.081 163.469 382.733 173.782 383.329 180.823C383.924 187.865 390.152 189.875 393.191 190Z" fill="#1B01BB" stroke="white" stroke-width="2.57418"/>
<path d="M406.965 175.144C406.065 175.144 405.273 174.97 404.589 174.622C403.905 174.262 403.377 173.764 403.005 173.128C402.633 172.492 402.447 171.754 402.447 170.914V166.468C402.447 165.628 402.633 164.89 403.005 164.254C403.377 163.618 403.905 163.126 404.589 162.778C405.273 162.43 406.065 162.256 406.965 162.256C407.853 162.256 408.639 162.424 409.323 162.76C410.007 163.096 410.535 163.57 410.907 164.182C411.279 164.794 411.465 165.502 411.465 166.306C411.465 166.366 411.441 166.42 411.393 166.468C411.357 166.504 411.309 166.522 411.249 166.522L409.593 166.612C409.449 166.612 409.377 166.546 409.377 166.414C409.377 165.706 409.155 165.136 408.711 164.704C408.279 164.272 407.697 164.056 406.965 164.056C406.233 164.056 405.645 164.272 405.201 164.704C404.757 165.136 404.535 165.706 404.535 166.414V171.004C404.535 171.7 404.757 172.264 405.201 172.696C405.645 173.128 406.233 173.344 406.965 173.344C407.697 173.344 408.279 173.134 408.711 172.714C409.155 172.282 409.377 171.712 409.377 171.004C409.377 170.872 409.449 170.806 409.593 170.806L411.249 170.878C411.309 170.878 411.357 170.896 411.393 170.932C411.441 170.968 411.465 171.01 411.465 171.058C411.465 171.874 411.279 172.594 410.907 173.218C410.535 173.83 410.007 174.304 409.323 174.64C408.639 174.976 407.853 175.144 406.965 175.144ZM416.946 165.658C417.702 165.658 418.368 165.79 418.944 166.054C419.52 166.318 419.964 166.684 420.276 167.152C420.588 167.608 420.744 168.13 420.744 168.718V174.784C420.744 174.844 420.72 174.898 420.672 174.946C420.636 174.982 420.588 175 420.528 175H418.872C418.812 175 418.758 174.982 418.71 174.946C418.674 174.898 418.656 174.844 418.656 174.784V174.208C418.656 174.172 418.644 174.154 418.62 174.154C418.596 174.142 418.572 174.148 418.548 174.172C417.96 174.82 417.108 175.144 415.992 175.144C415.092 175.144 414.348 174.916 413.76 174.46C413.184 174.004 412.896 173.326 412.896 172.426C412.896 171.49 413.22 170.764 413.868 170.248C414.528 169.72 415.452 169.456 416.64 169.456H418.566C418.626 169.456 418.656 169.426 418.656 169.366V168.934C418.656 168.466 418.518 168.106 418.242 167.854C417.966 167.59 417.552 167.458 417 167.458C416.544 167.458 416.172 167.542 415.884 167.71C415.608 167.866 415.434 168.088 415.362 168.376C415.326 168.52 415.242 168.58 415.11 168.556L413.364 168.34C413.304 168.328 413.25 168.31 413.202 168.286C413.166 168.25 413.154 168.208 413.166 168.16C413.262 167.428 413.652 166.828 414.336 166.36C415.032 165.892 415.902 165.658 416.946 165.658ZM416.514 173.488C417.102 173.488 417.606 173.332 418.026 173.02C418.446 172.708 418.656 172.312 418.656 171.832V170.986C418.656 170.926 418.626 170.896 418.566 170.896H417.054C416.418 170.896 415.914 171.016 415.542 171.256C415.182 171.496 415.002 171.838 415.002 172.282C415.002 172.666 415.14 172.966 415.416 173.182C415.704 173.386 416.07 173.488 416.514 173.488ZM427.125 165.694C427.509 165.694 427.845 165.772 428.133 165.928C428.229 165.976 428.265 166.066 428.241 166.198L427.935 167.818C427.923 167.962 427.839 168.004 427.683 167.944C427.503 167.884 427.293 167.854 427.053 167.854C426.897 167.854 426.777 167.86 426.693 167.872C426.189 167.896 425.769 168.076 425.433 168.412C425.097 168.736 424.929 169.162 424.929 169.69V174.784C424.929 174.844 424.905 174.898 424.857 174.946C424.821 174.982 424.773 175 424.713 175H423.057C422.997 175 422.943 174.982 422.895 174.946C422.859 174.898 422.841 174.844 422.841 174.784V166.018C422.841 165.958 422.859 165.91 422.895 165.874C422.943 165.826 422.997 165.802 423.057 165.802H424.713C424.773 165.802 424.821 165.826 424.857 165.874C424.905 165.91 424.929 165.958 424.929 166.018V166.828C424.929 166.876 424.935 166.906 424.947 166.918C424.971 166.918 424.995 166.9 425.019 166.864C425.523 166.084 426.225 165.694 427.125 165.694ZM437.19 169.366C437.238 169.666 437.262 170.002 437.262 170.374L437.244 170.932C437.244 171.076 437.172 171.148 437.028 171.148H431.394C431.334 171.148 431.304 171.178 431.304 171.238C431.34 171.634 431.394 171.904 431.466 172.048C431.754 172.912 432.456 173.35 433.572 173.362C434.388 173.362 435.036 173.026 435.516 172.354C435.564 172.282 435.624 172.246 435.696 172.246C435.744 172.246 435.786 172.264 435.822 172.3L436.938 173.218C437.046 173.302 437.064 173.398 436.992 173.506C436.62 174.034 436.122 174.442 435.498 174.73C434.886 175.018 434.202 175.162 433.446 175.162C432.51 175.162 431.712 174.952 431.052 174.532C430.404 174.112 429.93 173.524 429.63 172.768C429.354 172.12 429.216 171.22 429.216 170.068C429.216 169.372 429.288 168.808 429.432 168.376C429.672 167.536 430.122 166.876 430.782 166.396C431.454 165.904 432.258 165.658 433.194 165.658C435.558 165.658 436.89 166.894 437.19 169.366ZM433.194 167.458C432.75 167.458 432.378 167.572 432.078 167.8C431.79 168.016 431.586 168.322 431.466 168.718C431.394 168.922 431.346 169.186 431.322 169.51C431.298 169.57 431.322 169.6 431.394 169.6H435.048C435.108 169.6 435.138 169.57 435.138 169.51C435.114 169.21 435.078 168.982 435.03 168.826C434.922 168.394 434.706 168.058 434.382 167.818C434.07 167.578 433.674 167.458 433.194 167.458ZM446.929 169.366C446.977 169.666 447.001 170.002 447.001 170.374L446.983 170.932C446.983 171.076 446.911 171.148 446.767 171.148H441.133C441.073 171.148 441.043 171.178 441.043 171.238C441.079 171.634 441.133 171.904 441.205 172.048C441.493 172.912 442.195 173.35 443.311 173.362C444.127 173.362 444.775 173.026 445.255 172.354C445.303 172.282 445.363 172.246 445.435 172.246C445.483 172.246 445.525 172.264 445.561 172.3L446.677 173.218C446.785 173.302 446.803 173.398 446.731 173.506C446.359 174.034 445.861 174.442 445.237 174.73C444.625 175.018 443.941 175.162 443.185 175.162C442.249 175.162 441.451 174.952 440.791 174.532C440.143 174.112 439.669 173.524 439.369 172.768C439.093 172.12 438.955 171.22 438.955 170.068C438.955 169.372 439.027 168.808 439.171 168.376C439.411 167.536 439.861 166.876 440.521 166.396C441.193 165.904 441.997 165.658 442.933 165.658C445.297 165.658 446.629 166.894 446.929 169.366ZM442.933 167.458C442.489 167.458 442.117 167.572 441.817 167.8C441.529 168.016 441.325 168.322 441.205 168.718C441.133 168.922 441.085 169.186 441.061 169.51C441.037 169.57 441.061 169.6 441.133 169.6H444.787C444.847 169.6 444.877 169.57 444.877 169.51C444.853 169.21 444.817 168.982 444.769 168.826C444.661 168.394 444.445 168.058 444.121 167.818C443.809 167.578 443.413 167.458 442.933 167.458ZM453.193 165.694C453.577 165.694 453.913 165.772 454.201 165.928C454.297 165.976 454.333 166.066 454.309 166.198L454.003 167.818C453.991 167.962 453.907 168.004 453.751 167.944C453.571 167.884 453.361 167.854 453.121 167.854C452.965 167.854 452.845 167.86 452.761 167.872C452.257 167.896 451.837 168.076 451.501 168.412C451.165 168.736 450.997 169.162 450.997 169.69V174.784C450.997 174.844 450.973 174.898 450.925 174.946C450.889 174.982 450.841 175 450.781 175H449.125C449.065 175 449.011 174.982 448.963 174.946C448.927 174.898 448.909 174.844 448.909 174.784V166.018C448.909 165.958 448.927 165.91 448.963 165.874C449.011 165.826 449.065 165.802 449.125 165.802H450.781C450.841 165.802 450.889 165.826 450.925 165.874C450.973 165.91 450.997 165.958 450.997 166.018V166.828C450.997 166.876 451.003 166.906 451.015 166.918C451.039 166.918 451.063 166.9 451.087 166.864C451.591 166.084 452.293 165.694 453.193 165.694Z" fill="white"/>
<path d="M680.17 67.1193L679.789 67.485V71.8428V76.2006L680.17 76.5663C680.612 77.0234 681.298 77.0539 681.785 76.6577L682.151 76.3682V71.8428V67.3174L681.785 67.0279C681.298 66.6317 680.612 66.6622 680.17 67.1193Z" fill="white"/>
<path d="M699.031 78.8203C696.288 81.5629 695.938 81.9743 695.938 82.4162C695.938 83.0714 696.517 83.6504 697.187 83.6504C697.629 83.6504 698.01 83.3152 700.768 80.5573C703.526 77.7994 703.861 77.4185 703.861 76.9766C703.861 76.3062 703.282 75.7271 702.627 75.7271C702.185 75.7271 701.773 76.0776 699.031 78.8203Z" fill="white"/>
<path d="M668.801 79.1262C667.064 79.7205 665.738 80.8785 664.93 82.4784L664.55 83.2554L663.513 83.3164C659.689 83.5145 656.398 86.7447 655.956 90.7368C655.864 91.5444 656.032 93.3119 656.261 93.9061C656.306 94.0432 656.002 94.3175 655.316 94.7137C653.411 95.826 651.796 98.0353 651.217 100.336C650.928 101.494 650.928 103.902 651.217 105.06C651.629 106.705 652.467 108.153 653.64 109.341C654.234 109.935 655.087 110.621 655.529 110.865C656.184 111.215 656.322 111.368 656.245 111.612C655.682 113.562 655.849 115.512 656.763 117.402C658.089 120.175 660.466 121.82 663.605 122.125C664.55 122.232 664.687 122.277 664.763 122.582C664.809 122.78 665.098 123.253 665.403 123.649C665.692 124.045 665.921 124.38 665.89 124.411C665.86 124.426 665.57 124.593 665.235 124.761C663.864 125.447 663.026 126.711 662.904 128.235C662.812 129.53 662.95 130.124 663.559 131.008C664.031 131.709 664.062 131.801 663.833 131.983C663.331 132.395 662.873 133.659 662.873 134.635C662.873 137.179 664.519 138.901 667.155 139.069L668.328 139.16L668.42 139.937C668.633 141.613 669.822 143.244 671.376 143.96L672.244 144.371H678.034H683.824L684.845 143.868C686.445 143.091 687.496 141.613 687.664 139.952L687.755 139.16L688.913 139.069C690.315 138.977 690.97 138.718 691.824 137.956C693.454 136.478 693.759 133.995 692.509 132.334C692.113 131.816 692.037 131.633 692.189 131.511C692.296 131.42 692.586 130.993 692.814 130.551C693.195 129.881 693.256 129.576 693.256 128.677C693.241 126.407 691.641 124.578 689.493 124.365L688.746 124.289L688.853 123.435C689.142 120.998 690.041 118.453 691.306 116.533C691.717 115.908 692.967 114.491 694.185 113.272C697.842 109.6 699.518 106.659 700.463 102.241C700.89 100.214 700.844 96.085 700.372 94.1651C698.757 87.6285 694.307 82.4326 688.228 80.01C685.638 78.9738 682.316 78.4863 681.341 78.9891C680.792 79.2786 680.152 79.9795 679.954 80.4975C679.832 80.8023 679.787 87.6742 679.787 102.637V124.334H678.11H676.419L676.968 123.542C677.272 123.1 677.638 122.293 677.806 121.759C678.095 120.83 678.11 120.297 678.11 102.789C678.11 83.4078 678.126 83.9716 677.333 82.4022C676.907 81.5794 675.612 80.2233 674.789 79.7357C673.082 78.73 670.675 78.4863 668.801 79.1262ZM685.379 81.6098C690.925 82.9812 695.511 87.2933 697.385 92.8548C698.132 95.0946 698.284 96.0545 698.269 98.8124C698.269 101.113 698.223 101.57 697.873 102.896C697.416 104.587 696.425 106.781 695.465 108.198C695.115 108.732 693.683 110.347 692.296 111.764C690.437 113.669 689.569 114.689 689.035 115.588C687.618 117.965 686.811 120.297 686.476 122.994L686.293 124.334H684.266H682.224V102.805C682.224 90.9501 682.27 81.2289 682.316 81.168C682.468 81.0308 683.84 81.2289 685.379 81.6098ZM673.158 81.6403C674.179 82.1279 674.941 82.905 675.429 83.9411C675.749 84.642 675.749 84.6572 675.749 102.698V120.754L675.353 121.592C674.545 123.329 673.052 124.258 671.101 124.243C669.197 124.228 667.932 123.466 667.125 121.82C666.271 120.099 666.53 118.453 667.765 117.676C668.633 117.127 668.816 116.899 668.816 116.365C668.816 115.71 668.344 115.192 667.734 115.192C666.287 115.192 664.504 117.158 664.29 119.032L664.199 119.794L663.529 119.687C660.405 119.23 658.455 117.021 658.455 113.973C658.455 111.352 659.887 109.326 662.371 108.473C663.468 108.092 663.94 107.665 663.94 107.086C663.94 106.507 663.331 105.898 662.752 105.898C661.67 105.898 659.765 106.919 658.348 108.275L657.464 109.113L656.931 108.869C654.828 107.863 653.442 105.471 653.426 102.85C653.426 100.656 654.051 99.0715 655.453 97.6544C656.565 96.5574 657.921 95.9326 659.384 95.8564C660.771 95.7955 661.578 96.085 662.599 97.0297C663.422 97.7763 663.803 97.8982 664.367 97.6087C665.22 97.1668 665.25 96.2831 664.443 95.4603C663.224 94.1956 661.35 93.4033 659.597 93.4033H658.638L658.47 92.6414C658.226 91.5444 658.257 90.9806 658.607 89.8835C659.384 87.4151 661.654 85.7543 664.275 85.7391C665.327 85.7238 665.555 85.7848 666.607 86.3028C667.551 86.7752 667.902 87.0495 668.526 87.857C669.349 88.8779 669.73 89.0912 670.355 88.8627C670.858 88.6646 671.147 88.2989 671.147 87.8418C671.147 86.8819 669.364 84.9315 667.795 84.1544C666.881 83.7126 666.881 83.6516 667.871 82.5545C669.136 81.1527 671.33 80.787 673.158 81.6403ZM689.995 127.001C690.529 127.275 690.91 127.946 690.91 128.601C690.91 128.86 690.803 129.271 690.681 129.515C690.193 130.46 690.681 130.429 677.943 130.429H666.347L665.829 129.911C665.372 129.454 665.311 129.286 665.311 128.631C665.311 127.824 665.677 127.169 666.287 126.925C666.454 126.849 671.772 126.788 678.08 126.788C688.045 126.772 689.614 126.803 689.995 127.001ZM689.767 133.08C690.376 133.339 690.91 134.117 690.91 134.741C690.91 135.351 690.513 136.036 689.95 136.372C689.477 136.661 689.096 136.676 678.141 136.676C667.963 136.676 666.744 136.646 666.287 136.433C665.266 135.945 664.976 134.513 665.723 133.629C665.936 133.355 666.271 133.08 666.439 133.02C666.622 132.943 671.818 132.882 678.004 132.882C687.451 132.867 689.325 132.898 689.767 133.08ZM685.318 139.602C685.165 140.44 684.617 141.263 683.961 141.644L683.322 142.025L677.928 141.979L672.518 141.933L671.97 141.507C671.345 141.034 670.797 140.089 670.797 139.495V139.114H678.11H685.424L685.318 139.602Z" fill="white"/>
<path d="M684.908 84.4605C684.497 84.8719 684.406 85.4509 684.649 85.9232C684.741 86.0756 685.609 86.5937 686.6 87.0813C688.215 87.8888 688.55 88.1326 689.86 89.4278C690.759 90.3267 691.567 91.3019 691.948 91.9571C692.847 93.496 693.487 95.5378 693.654 97.3815C693.761 98.6614 693.837 98.9814 694.127 99.2861C694.553 99.7432 695.163 99.7584 695.711 99.3166L696.138 98.9814L696.047 97.3815C695.757 92.1856 692.466 87.2489 687.758 84.9328C685.914 84.0338 685.426 83.9577 684.908 84.4605Z" fill="white"/>
<path d="M702.965 97.9133C702.782 98.1419 702.645 98.4771 702.645 98.66C702.645 98.8428 702.782 99.178 702.965 99.4066L703.269 99.8027H707.764C712.046 99.8027 712.259 99.7875 712.549 99.498C712.731 99.3152 712.853 98.9952 712.853 98.66C712.853 98.3247 712.731 98.0048 712.549 97.8219C712.259 97.5324 712.046 97.5172 707.764 97.5172H703.269L702.965 97.9133Z" fill="white"/>
<path d="M696.698 113.714C696.195 113.958 695.86 114.583 695.982 115.055C696.028 115.253 697.475 116.823 699.197 118.529C702.229 121.546 702.336 121.638 702.824 121.531C703.448 121.409 703.86 120.937 703.86 120.312C703.86 119.901 703.479 119.459 700.782 116.762C699.075 115.086 697.552 113.653 697.384 113.608C697.216 113.562 696.912 113.608 696.698 113.714Z" fill="white"/>
<circle cx="709.871" cy="67.8147" r="6.44993" stroke="white" stroke-width="1.84284"/>
<circle cx="722.156" cy="97.9143" r="6.44993" stroke="white" stroke-width="1.84284"/>
<circle cx="709.871" cy="128.014" r="6.44993" stroke="white" stroke-width="1.84284"/>
<path d="M680.6 50.069C677.898 50.4931 675.571 52.4077 674.674 54.9524C672.76 60.4053 677.558 65.8704 683.205 64.6707C687.204 63.8225 689.761 59.86 688.913 55.8491C688.537 54.0557 687.289 52.238 685.738 51.208C684.356 50.2871 682.224 49.8145 680.6 50.069ZM683.096 52.0684C684.647 52.4804 685.992 53.6073 686.707 55.122C687.071 55.9097 687.146 55.9903 687.146 57.3718C687.146 58.8016 687.083 58.8664 686.647 59.7873C686.065 61.0233 685.265 61.8231 684.041 62.4047C683.242 62.7804 682.963 62.8531 682.03 62.8894C680.697 62.9621 679.679 62.7077 678.698 62.0775C676.262 60.4901 675.45 57.5213 676.747 54.8312C677.11 54.0678 678.334 52.856 679.097 52.4925C680.406 51.8745 681.763 51.7291 683.096 52.0684Z" fill="white"/>
<path d="M678.543 57.0645L680.014 59.2713C680.214 59.571 680.628 59.6353 680.909 59.4102L683.457 57.3716L685.3 55.8359" stroke="white" stroke-width="1.5" stroke-linecap="round"/>
<path d="M706.801 128.014L708.272 130.22C708.472 130.52 708.885 130.584 709.167 130.359L711.715 128.321L713.558 126.785" stroke="white" stroke-width="1.5" stroke-linecap="round"/>
<g clip-path="url(#clip1_860_207)">
<path d="M938.587 140.582C938.172 140.98 938.172 140.997 938.172 144.367C938.172 147.521 938.188 147.77 938.504 148.102C938.952 148.567 939.533 148.717 940.031 148.451C940.795 148.053 940.812 147.903 940.828 144.35C940.828 140.997 940.828 140.98 940.413 140.582C940.164 140.316 939.815 140.167 939.5 140.167C939.185 140.167 938.836 140.316 938.587 140.582Z" fill="white"/>
<path d="M921.72 145.129C921.454 145.395 921.238 145.777 921.238 145.976C921.238 146.391 924.276 151.753 924.691 152.069C925.007 152.318 925.787 152.351 926.219 152.118C926.385 152.035 926.584 151.753 926.684 151.488C926.899 150.873 926.767 150.574 924.957 147.487C923.214 144.482 922.716 144.133 921.72 145.129Z" fill="white"/>
<path d="M955.837 144.847C955.505 144.996 952.882 149.28 952.384 150.475C952.118 151.106 952.301 151.869 952.782 152.118C953.214 152.351 953.994 152.318 954.31 152.069C954.725 151.753 957.763 146.391 957.763 145.976C957.763 145.528 956.9 144.648 956.485 144.664C956.319 144.664 956.02 144.747 955.837 144.847Z" fill="white"/>
<path d="M937.092 151.971C926.649 152.967 917.917 161.201 916.174 171.693C915.742 174.2 915.891 178.6 916.489 180.94C918.016 187.05 921.171 191.516 926.616 195.334C927.429 195.898 928.243 196.562 928.425 196.795C928.907 197.459 929.023 198.389 929.04 201.925C929.04 204.714 929.09 205.262 929.355 205.826C929.737 206.64 930.567 207.486 931.397 207.918C931.862 208.15 932.028 208.35 932.028 208.632C932.028 208.848 932.177 209.528 932.36 210.126C932.808 211.57 934.07 212.965 935.548 213.646C936.577 214.127 936.643 214.127 939.499 214.127C942.354 214.127 942.421 214.127 943.45 213.646C944.927 212.965 946.189 211.57 946.637 210.126C946.82 209.528 946.969 208.848 946.969 208.632C946.969 208.35 947.135 208.15 947.6 207.918C948.414 207.503 949.211 206.689 949.626 205.826C949.925 205.212 949.958 204.797 949.958 201.908C949.974 197.177 950.057 196.944 952.05 195.566C956.349 192.595 958.84 189.772 960.848 185.589C962.409 182.318 963.073 179.313 963.073 175.429C963.073 172.673 962.774 170.664 961.977 168.224C959.786 161.517 954.656 156.055 948.132 153.481C946.322 152.768 943.666 152.153 941.574 151.954C939.549 151.771 939.233 151.771 937.092 151.971ZM943.682 154.959C947.816 155.789 951.186 157.615 954.291 160.736C958.408 164.837 960.417 169.668 960.417 175.429C960.417 179.098 959.736 181.953 958.092 185.141C956.432 188.345 954.125 190.901 950.871 193.126C948.215 194.919 947.567 195.998 947.368 198.87L947.252 200.431H939.499H931.746L931.646 198.87C931.464 196.031 930.783 194.919 928.11 193.109C924.873 190.901 922.549 188.345 920.905 185.141C919.261 181.953 918.581 179.098 918.581 175.429C918.581 169.884 920.523 165.02 924.325 161.085C925.968 159.375 926.965 158.578 928.857 157.449C933.257 154.793 938.519 153.913 943.682 154.959ZM947.301 203.9C947.301 204.531 947.202 204.83 946.903 205.195L946.505 205.66H939.499H932.493L932.094 205.195C931.796 204.83 931.696 204.531 931.696 203.9V203.087H939.499H947.301V203.9ZM944.23 208.931C944.064 209.744 943.317 210.74 942.57 211.122C941.989 211.421 941.624 211.471 939.499 211.471C937.374 211.471 937.009 211.421 936.427 211.122C935.68 210.74 934.933 209.744 934.767 208.931L934.651 208.399H939.499H944.346L944.23 208.931Z" fill="white"/>
<path d="M935.767 157.515C935.401 157.863 935.352 158.062 935.352 159.075V160.221L934.488 160.52C934.007 160.669 933.177 161.018 932.646 161.283L931.666 161.765L930.786 160.935C929.425 159.64 929.408 159.656 926.52 162.545C923.631 165.434 923.614 165.45 924.909 166.812L925.739 167.691L925.258 168.671C924.992 169.202 924.644 170.032 924.494 170.497L924.195 171.377H923.05C922.037 171.377 921.838 171.427 921.489 171.792C921.074 172.19 921.074 172.207 921.074 175.527C921.074 178.848 921.074 178.864 921.489 179.263C921.838 179.628 922.037 179.678 923.05 179.678H924.195L924.494 180.541C924.644 181.022 924.992 181.853 925.258 182.384L925.739 183.363L924.909 184.243C923.614 185.604 923.631 185.621 926.52 188.51C929.408 191.398 929.425 191.415 930.786 190.12L931.666 189.29L932.646 189.771C933.177 190.037 934.007 190.386 934.488 190.535L935.352 190.834V191.979C935.352 192.992 935.401 193.191 935.767 193.54C936.165 193.955 936.182 193.955 939.502 193.955C942.822 193.955 942.839 193.955 943.237 193.54C943.603 193.191 943.652 192.992 943.652 191.979V190.834L944.532 190.535C944.997 190.386 945.827 190.037 946.358 189.771L947.338 189.29L948.218 190.12C949.579 191.415 949.596 191.398 952.484 188.51C955.373 185.621 955.39 185.604 954.095 184.243L953.265 183.363L953.746 182.384C954.012 181.853 954.36 181.022 954.51 180.541L954.809 179.678H955.954C956.967 179.678 957.166 179.628 957.515 179.263C957.93 178.864 957.93 178.848 957.93 175.527C957.93 172.207 957.93 172.19 957.515 171.792C957.166 171.427 956.967 171.377 955.954 171.377H954.809L954.51 170.497C954.36 170.032 954.012 169.202 953.746 168.671L953.265 167.691L954.095 166.812C955.39 165.45 955.373 165.434 952.484 162.545C949.596 159.656 949.579 159.64 948.218 160.935L947.338 161.765L946.358 161.283C945.827 161.018 944.997 160.669 944.532 160.52L943.652 160.221V159.075C943.652 158.062 943.603 157.863 943.237 157.515C942.839 157.1 942.822 157.1 939.502 157.1C936.182 157.1 936.165 157.1 935.767 157.515ZM941.029 160.852C941.112 162.163 941.361 162.445 942.689 162.744C943.171 162.844 944.399 163.342 945.412 163.84C946.425 164.338 947.438 164.736 947.67 164.736C947.919 164.736 948.4 164.471 948.865 164.039L949.662 163.358L950.658 164.371L951.671 165.367L950.99 166.164C950.559 166.629 950.293 167.11 950.293 167.359C950.293 167.592 950.691 168.604 951.189 169.617C951.688 170.63 952.186 171.858 952.285 172.34C952.584 173.668 952.866 173.917 954.178 174L955.273 174.066V175.544V177.021H954.41C952.966 177.021 952.783 177.204 952.119 179.18C951.804 180.143 951.256 181.438 950.924 182.052C950.11 183.513 950.11 183.911 950.99 184.891L951.671 185.688L950.658 186.684L949.662 187.696L948.865 187.016C947.886 186.136 947.487 186.136 946.026 186.933C945.412 187.281 944.117 187.829 943.154 188.145C941.179 188.809 940.996 188.991 940.996 190.419V191.299H939.502H938.008V190.419C938.008 188.991 937.825 188.809 935.85 188.145C934.887 187.829 933.592 187.281 932.978 186.933C931.517 186.136 931.118 186.136 930.139 187.016L929.342 187.696L928.346 186.684L927.333 185.688L928.014 184.891C928.877 183.928 928.894 183.463 928.163 182.201C927.582 181.188 927.101 180.043 926.603 178.433C926.254 177.271 925.905 177.021 924.61 177.021H923.73V175.527V174.033H924.61C925.905 174.033 926.254 173.784 926.603 172.622C927.101 171.012 927.582 169.866 928.163 168.854C928.894 167.592 928.877 167.127 928.014 166.164L927.333 165.367L928.346 164.371L929.342 163.358L930.139 164.039C931.102 164.902 931.566 164.919 932.828 164.188C933.841 163.607 934.986 163.126 936.597 162.628C937.759 162.279 938.008 161.931 938.008 160.619V159.756H939.485H940.963L941.029 160.852Z" fill="white"/>
<path d="M937.011 165.667C933.442 166.596 930.536 169.535 929.623 173.121C929.308 174.383 929.308 176.674 929.623 177.935C930.553 181.571 933.458 184.476 937.094 185.406C938.356 185.721 940.647 185.721 941.908 185.406C945.544 184.476 948.449 181.571 949.379 177.935C949.695 176.674 949.695 174.383 949.379 173.121C948.449 169.485 945.544 166.58 941.908 165.65C940.68 165.335 938.223 165.351 937.011 165.667ZM942.689 168.755C944.299 169.552 945.478 170.73 946.275 172.357C946.872 173.569 946.889 173.635 946.889 175.528C946.889 177.421 946.872 177.487 946.275 178.699C945.644 179.977 944.465 181.322 943.502 181.886L942.988 182.185V180.442V178.682H943.652C944.133 178.682 944.448 178.566 944.864 178.184C945.544 177.603 945.727 176.873 945.411 176.142C945.096 175.412 940.896 170.016 940.448 169.767C940.248 169.651 939.817 169.568 939.501 169.568C939.186 169.568 938.754 169.651 938.555 169.767C938.107 170.016 933.906 175.412 933.591 176.142C933.06 177.354 934.006 178.682 935.384 178.682H936.015V180.442V182.185L935.5 181.886C934.537 181.322 933.359 179.977 932.728 178.699C932.13 177.487 932.114 177.421 932.114 175.528C932.114 173.635 932.13 173.569 932.728 172.357C933.691 170.415 935.201 169.087 937.26 168.34C937.891 168.124 938.489 168.057 939.767 168.091C941.311 168.14 941.527 168.19 942.689 168.755ZM940.813 174.316C941.46 175.163 941.991 175.893 941.991 175.943C941.991 175.993 941.809 176.026 941.576 176.026C941.344 176.026 940.962 176.209 940.746 176.441C940.331 176.84 940.331 176.873 940.331 179.927V182.999H939.501H938.671V179.927C938.671 176.873 938.671 176.84 938.256 176.441C938.04 176.209 937.658 176.026 937.426 176.026C937.177 176.026 937.011 175.96 937.044 175.893C937.177 175.561 939.435 172.706 939.518 172.756C939.584 172.772 940.165 173.469 940.813 174.316Z" fill="white"/>
<path d="M909.384 157.448C908.853 157.863 908.77 158.876 909.251 159.308C909.949 159.938 914.796 162.578 915.244 162.578C916.34 162.578 916.938 161.184 916.174 160.437C915.61 159.889 910.613 157.1 910.214 157.1C909.998 157.1 909.633 157.249 909.384 157.448Z" fill="white"/>
<path d="M965.647 158.677C964.203 159.523 962.858 160.387 962.692 160.603C962.078 161.366 962.725 162.578 963.755 162.578C964.203 162.578 969.05 159.938 969.764 159.308C969.93 159.142 970.047 158.793 970.047 158.411C970.047 157.681 969.449 157.083 968.735 157.116C968.503 157.116 967.108 157.83 965.647 158.677Z" fill="white"/>
<path d="M901.117 169.302C900.188 169.65 899.109 170.431 898.61 171.161C897.631 172.589 897.664 172.008 897.664 186.8V200.347L898.063 201.442C898.627 203.086 899.324 203.966 903.143 208.066C907.293 212.499 907.658 213.063 907.758 215.371L907.824 216.832L907.227 217.031C906.513 217.264 905.849 218.011 905.716 218.741C905.6 219.355 906.596 223.257 907.044 223.938C907.326 224.386 908.206 224.834 908.771 224.834C909.152 224.834 927.481 219.953 928.493 219.588C928.892 219.438 929.357 219.14 929.539 218.907C930.12 218.16 930.12 217.546 929.473 215.172C928.942 213.229 928.809 212.897 928.294 212.416C927.813 211.984 927.58 211.885 926.966 211.885C926.551 211.885 926.219 211.835 926.219 211.752C926.219 211.686 926.368 210.391 926.568 208.863C926.9 206.24 926.9 206.008 926.651 204.796C926.152 202.322 926.103 202.256 919.512 195.665C912.456 188.593 912.639 188.726 909.833 188.726L908.123 188.742V181.006C908.123 171.925 908.173 172.224 906.563 170.613C905.849 169.916 905.301 169.518 904.736 169.335C903.757 169.003 901.981 168.986 901.117 169.302ZM904.321 172.107C905.5 172.904 905.467 172.672 905.467 182.251C905.467 190.419 905.45 190.867 905.152 191.365C904.587 192.295 904.255 193.756 904.371 194.835C904.57 196.711 905.002 197.358 908.505 200.878C910.248 202.654 911.892 204.215 912.141 204.348C912.722 204.646 913.336 204.497 913.768 203.966C914.448 203.103 914.332 202.937 910.713 199.284C907.077 195.599 906.828 195.233 907.027 193.889C907.36 191.863 909.617 190.685 911.41 191.614C911.742 191.797 914.581 194.503 917.702 197.641C923.662 203.617 923.895 203.899 924.127 205.576C924.21 206.19 923.529 212.466 923.363 212.648C923.28 212.715 910.879 216.035 910.68 216.035C910.564 216.035 910.464 215.537 910.398 214.74C910.215 212.084 909.451 210.905 904.637 205.742C902.313 203.252 901.167 201.891 900.852 201.26L900.403 200.347L900.354 186.899C900.32 173.718 900.32 173.436 900.652 172.904C901.4 171.692 903.143 171.311 904.321 172.107ZM926.966 216.019C927.115 216.6 927.182 217.131 927.099 217.197C926.817 217.43 909.252 222.045 909.119 221.912C908.986 221.746 908.405 219.505 908.488 219.438C908.522 219.405 912.572 218.31 917.503 216.998C923.48 215.388 926.501 214.657 926.584 214.773C926.634 214.873 926.817 215.438 926.966 216.019Z" fill="white"/>
<path d="M974.199 169.335C973.718 169.501 973.087 169.966 972.44 170.613C970.829 172.224 970.879 171.925 970.879 181.006V188.742L969.186 188.726C966.363 188.726 966.546 188.593 959.49 195.665C952.9 202.256 952.85 202.322 952.352 204.796C952.103 206.008 952.103 206.24 952.435 208.863C952.634 210.391 952.783 211.686 952.783 211.752C952.783 211.835 952.451 211.885 952.036 211.885C951.422 211.885 951.19 211.984 950.708 212.433C950.193 212.897 950.061 213.229 949.529 215.172C948.882 217.546 948.882 218.16 949.463 218.907C949.646 219.123 949.994 219.389 950.243 219.505C950.941 219.787 969.883 224.834 970.248 224.834C970.796 224.834 971.676 224.369 971.958 223.938C972.406 223.257 973.402 219.355 973.286 218.741C973.153 218.011 972.489 217.264 971.775 217.031L971.178 216.832L971.244 215.371C971.344 213.08 971.709 212.499 975.776 208.149C979.562 204.099 980.375 203.036 980.94 201.442L981.338 200.347V186.783C981.338 173.485 981.338 173.203 980.989 172.307C980.574 171.194 979.562 170.099 978.433 169.551C977.37 169.02 975.328 168.92 974.199 169.335ZM977.486 172.041C977.785 172.224 978.167 172.605 978.35 172.904C978.682 173.436 978.682 173.718 978.649 186.899L978.599 200.347L978.15 201.26C977.835 201.891 976.69 203.252 974.365 205.742C969.551 210.905 968.787 212.084 968.605 214.74C968.555 215.454 968.439 216.035 968.339 216.035C968.156 216.035 955.705 212.715 955.639 212.648C955.473 212.466 954.792 206.19 954.875 205.576C955.108 203.899 955.34 203.617 961.3 197.641C964.421 194.503 967.26 191.797 967.592 191.614C969.385 190.685 971.643 191.863 971.975 193.889C972.174 195.233 971.925 195.599 968.289 199.284C964.67 202.937 964.554 203.103 965.234 203.966C965.666 204.497 966.28 204.646 966.861 204.348C967.11 204.215 968.754 202.654 970.497 200.878C973.967 197.392 974.415 196.744 974.631 194.951C974.747 193.889 974.399 192.229 973.867 191.382C973.552 190.867 973.535 190.519 973.535 182.251C973.535 172.672 973.502 172.904 974.681 172.107C975.444 171.593 976.69 171.56 977.486 172.041ZM962.578 217.28C966.911 218.442 970.481 219.405 970.514 219.438C970.613 219.538 969.949 221.896 969.8 221.945C969.717 221.979 965.633 220.933 960.752 219.621L951.87 217.247L951.903 216.799C951.92 216.55 952.053 215.952 952.202 215.454L952.451 214.558L953.58 214.873C954.194 215.039 958.245 216.118 962.578 217.28Z" fill="white"/>
</g>
<defs>
<linearGradient id="paint0_linear_860_207" x1="107.019" y1="259.744" x2="1146.2" y2="245.921" gradientUnits="userSpaceOnUse">
<stop stop-color="#468C00"/>
<stop offset="0.155165" stop-color="#468C00"/>
<stop offset="0.158958" stop-color="#1B02BA"/>
<stop offset="0.408817" stop-color="#1A00BB"/>
<stop offset="0.409927" stop-color="#09E1A0"/>
<stop offset="0.686967" stop-color="#09E1A0"/>
<stop offset="0.68932" stop-color="#27BFCD"/>
<stop offset="1" stop-color="#27BFCD"/>
</linearGradient>
<clipPath id="clip0_860_207">
<rect width="65.5" height="65.5" fill="white" transform="translate(135 71)"/>
</clipPath>
<clipPath id="clip1_860_207">
<rect width="85" height="85" fill="white" transform="translate(897 140)"/>
</clipPath>
</defs>
</svg>
