<svg width="109" height="109" viewBox="0 0 109 109" fill="none" xmlns="http://www.w3.org/2000/svg">
<path d="M69.5508 51.9023H102.77" stroke="#FF5E00" stroke-width="2" stroke-linecap="round"/>
<path d="M69.5508 44.6367H102.77" stroke="#FF5E00" stroke-width="2" stroke-linecap="round"/>
<path d="M69.5508 37.3691H102.77" stroke="#FF5E00" stroke-width="2" stroke-linecap="round"/>
<path d="M8.30469 20.7608L34.7761 32.1799L62.2856 20.7608L34.7761 9.3418L8.30469 20.7608Z" fill="#F9B38A"/>
<path d="M20.0543 13.7295C12.2838 16.9228 5.79068 19.6691 5.62036 19.8182C5.21587 20.1588 5.23716 21.1594 5.70552 21.5426C5.98228 21.7768 11.9645 24.3527 15.903 25.9068C16.1159 25.992 16.1797 27.5887 16.1797 32.9109V39.7873L15.5836 40.1066C14.6469 40.5963 13.2844 42.0652 12.7309 43.1723C12.4116 43.8535 12.22 44.6838 12.1774 45.727C12.0922 47.132 12.1561 47.4088 12.7522 48.6436C13.1567 49.4312 13.7954 50.3254 14.3063 50.7725C15.1792 51.5176 17.0952 52.3691 17.9042 52.3691C18.3725 52.3691 18.4364 52.4756 19.4583 55.7754C20.3311 58.6281 21.8852 61.9066 23.418 64.1846C24.6315 65.9729 24.6741 66.3348 24.1419 68.932C23.4819 72.2105 21.9278 74.4033 19.2667 75.8936C18.5215 76.3193 16.4139 77.2135 14.5618 77.8947C10.0911 79.534 9.72915 79.683 7.96216 80.79C3.00181 83.877 0.596145 89.0928 0.0852079 97.7361C-0.0425264 100.078 -0.0425264 100.227 0.404544 100.674L0.851614 101.121H35.4038C69.6579 101.121 69.9772 101.121 70.3604 100.695C70.701 100.312 70.7223 99.9715 70.6159 97.2465C70.3391 90.7746 68.7424 86.1549 65.6129 82.7912C63.5053 80.5133 61.0358 79.023 55.7348 76.8303C52.137 75.3613 50.5616 74.4459 49.0075 72.8918C47.134 71.0184 46.1547 68.6978 45.8567 65.3129C45.729 64.0994 45.7715 63.8227 46.1547 63.2904C47.0489 62.0131 48.7946 58.1598 49.5184 55.7754C50.5403 52.4756 50.6042 52.3691 51.0725 52.3691C51.8815 52.3691 53.7975 51.5176 54.6704 50.7725C55.9477 49.6654 56.8419 47.7494 56.8419 46.0889C56.8419 43.7471 55.671 41.5543 53.7762 40.3621L52.7969 39.7447V32.8896V26.0346L57.8637 23.9482C60.6313 22.8199 63.0795 21.7342 63.2924 21.5426C63.8247 21.0742 63.7608 20.0949 63.186 19.7117C62.526 19.2859 34.7864 7.87499 34.4458 7.89629C34.2967 7.89629 27.8249 10.5148 20.0543 13.7295ZM46.176 15.3475C52.4563 17.9447 57.9276 20.2014 58.3321 20.3717L59.0772 20.6697L54.9258 22.3728C52.6479 23.3096 47.1766 25.5449 42.7485 27.3545C38.3417 29.1641 34.6374 30.6543 34.5096 30.6543C34.3819 30.6543 30.3157 29.0363 25.4831 27.0564C20.6717 25.0766 15.1792 22.8199 13.3057 22.0535C11.3045 21.2445 10.0272 20.6271 10.2188 20.542C10.3891 20.4781 15.8604 18.2215 22.3536 15.5391C28.8467 12.8566 34.2967 10.6639 34.467 10.6639C34.6161 10.6426 39.8745 12.7502 46.176 15.3475ZM26.7604 30.4201C30.7628 32.0594 34.2542 33.4219 34.4883 33.4219C34.7438 33.4219 38.3204 32.0381 42.4504 30.335C46.5805 28.6318 50.0081 27.248 50.0932 27.248C50.1784 27.248 50.2422 29.973 50.2422 33.3154V39.3828H34.4883H18.7344V33.2941C18.7344 27.5887 18.7557 27.2055 19.1176 27.3119C19.3092 27.3545 22.7581 28.7596 26.7604 30.4201ZM52.4776 42.5762C54.202 43.7471 54.7768 46.0676 53.7975 47.792C53.0098 49.1758 52.286 49.5377 49.0501 50.1551C48.5391 50.2402 48.3688 50.6021 47.5811 53.4123C45.878 59.6074 42.9401 64.5039 39.47 66.9734C37.8946 68.1018 35.7231 68.9746 34.5096 68.9746C33.509 68.9746 31.6569 68.3572 30.2944 67.5695C28.9745 66.7818 26.5049 64.291 25.3553 62.5666C23.6096 59.9055 21.9065 55.7541 20.8633 51.5814C20.5866 50.4744 20.1608 50.0273 19.3944 50.0273C18.5002 50.0273 16.7333 49.4525 16.0946 48.9416C14.136 47.3875 14.3063 44.1516 16.4565 42.5762L17.3293 41.9375H34.4458H51.5409L52.4776 42.5762ZM43.962 69.1023C44.6858 71.5719 45.5374 73.0195 47.2831 74.7865L48.7094 76.2342L47.6237 77.0432C43.2594 80.3217 38.001 81.8758 33.2749 81.3223C29.6983 80.8965 26.3559 79.5979 23.6735 77.5967L22.609 76.7877L23.3116 76.0852C24.9508 74.4672 26.1217 72.1467 26.6114 69.6559C26.7604 68.932 26.9307 68.3359 26.9733 68.3359C27.0159 68.3359 27.5055 68.6766 28.0378 69.0811C29.3364 70.0604 30.9756 70.8268 32.9129 71.3164C34.467 71.7209 34.5096 71.7209 36.0637 71.3164C36.9366 71.1035 38.1713 70.6777 38.81 70.3584C39.9596 69.8262 42.4292 68.0805 42.9827 67.3992C43.153 67.2076 43.302 67.0799 43.3446 67.1225C43.3872 67.165 43.6639 68.0379 43.962 69.1023ZM52.5627 78.2566C53.2866 78.576 53.8614 78.8953 53.8614 79.0018C53.8614 79.2998 51.4344 81.3436 49.6887 82.5145C47.794 83.7705 45.1542 85.0691 43.0465 85.7717C40.279 86.7084 38.7674 86.9213 35.2335 86.9426C32.1891 86.9426 31.593 86.9 29.5493 86.3678C24.9934 85.1969 21.9704 83.5789 18.0958 80.3004L17.3719 79.6617L18.8196 79.0018C19.6286 78.6398 20.3311 78.3418 20.3737 78.3418C20.4163 78.3418 21.1401 78.874 21.9917 79.5127C26.2069 82.7486 32.3381 84.473 37.3411 83.877C41.684 83.366 45.5586 81.7693 49.2842 78.9805C50.221 78.2779 51.0512 77.7031 51.1364 77.7031C51.2215 77.7031 51.8602 77.9586 52.5627 78.2566ZM58.8217 81.0242C61.27 82.259 62.4835 83.1318 63.9524 84.7711C66.4219 87.4961 68.1251 92.7119 68.1251 97.5445V98.5664H35.3186H2.53345L2.66118 97.0123C3.4063 88.4754 5.62036 84.5369 11.2407 81.9184C12.22 81.4713 13.4122 81.0029 13.9018 80.8752L14.796 80.641L16.1797 81.9396C23.3329 88.6883 33.4239 91.2004 42.5782 88.5605C47.134 87.2619 51.626 84.7285 54.8407 81.6629C55.7774 80.79 56.6077 80.0662 56.6928 80.0449C56.7993 80.0449 57.7573 80.492 58.8217 81.0242Z" fill="#FF5E00"/>
<path d="M66.3174 28.9291C65.0826 29.4826 64.1672 30.3129 63.6775 31.3561C63.2305 32.2502 63.2305 32.5482 63.2305 46.0455V59.8408L63.7627 60.884C64.742 62.8213 66.3387 63.6303 69.2553 63.6516H71.1074V67.3772C71.1074 70.826 71.15 71.1453 71.5332 71.5285C72.3848 72.3801 72.7254 72.1672 77.0684 67.8029L81.2197 63.6516H93.0352C104.467 63.6516 104.872 63.6303 105.809 63.2045C106.979 62.6723 107.831 61.8846 108.427 60.7775C108.896 59.926 108.896 59.8621 108.896 46.0881V32.2502L108.427 31.3773C107.831 30.249 106.49 29.0994 105.404 28.7801C104.808 28.5885 99.4645 28.5246 85.882 28.5246C68.2334 28.5246 67.1264 28.5459 66.3174 28.9291ZM104.957 31.3561C105.234 31.5051 105.702 31.9522 105.958 32.3354L106.447 33.0592V46.0881V59.117L105.958 59.8408C105.702 60.224 105.234 60.6711 104.957 60.8201C104.553 61.033 101.572 61.0969 92.3113 61.0969H80.1766L76.9193 64.3328L73.6621 67.5688V64.716C73.6621 60.9691 73.7898 61.0969 70.3197 61.0969C67.4457 61.0969 66.7645 60.9053 66.1258 59.9473C65.8277 59.4576 65.7852 58.0951 65.7852 46.0881C65.7852 37.0615 65.849 32.6121 66.0193 32.3354C66.1258 32.1012 66.5516 31.718 66.9135 31.5051C67.5734 31.1006 68.1482 31.0793 86.0098 31.0793C100.316 31.0793 104.553 31.1432 104.957 31.3561Z" fill="#FF5E00"/>
</svg>
