<svg width="91" height="91" viewBox="0 0 91 91" fill="none" xmlns="http://www.w3.org/2000/svg">
<g clip-path="url(#clip0_742_4400)">
<path d="M41.2861 0.354376C37.6958 0.709845 33.679 1.61629 30.0355 2.89598C26.0542 4.30008 19.6025 7.87254 19.1759 8.92117C18.8027 9.80984 19.5492 10.8407 20.5445 10.8407C20.7044 10.8407 21.6464 10.3253 22.6417 9.7032C35.2787 1.77625 50.5816 0.869806 63.9827 7.25047C66.9331 8.65457 70.8255 11.2317 73.3138 13.4001L74.0247 14.0221H73.1361C72.6562 14.0221 71.4831 13.9511 70.5589 13.8622C68.6572 13.6845 68.1417 13.8266 67.7507 14.6087C67.4663 15.2307 67.6441 15.9417 68.1773 16.2971C68.6572 16.5993 77.615 17.3813 78.4148 17.1858C79.4101 16.937 79.4456 16.546 79.0724 11.7294C78.6458 6.34402 78.6458 6.30848 78.0771 5.86414C77.4906 5.40203 76.9574 5.41981 76.3531 5.88192C75.8199 6.30848 75.7665 6.85945 76.0687 10.0231C76.1753 11.0895 76.2286 11.9782 76.1931 12.0138C76.1576 12.0493 75.4288 11.4628 74.5402 10.7341C72.4251 8.93895 68.4617 6.32625 65.9378 5.06434C61.2456 2.71824 56.3224 1.2075 51.1859 0.53211C49.1597 0.265509 43.3122 0.158869 41.2861 0.354376Z" fill="#FF5E00"/>
<path d="M14.7511 11.676C14.3067 11.7116 12.245 11.8893 10.1478 12.067C6.39757 12.3692 6.32647 12.387 5.91769 12.8668C5.42003 13.4711 5.40226 14.0221 5.88214 14.6442C6.3087 15.1774 6.85968 15.2307 10.0233 14.9286C11.0898 14.8219 11.9784 14.7686 12.014 14.8041C12.0495 14.8219 11.463 15.5684 10.7343 16.4393C8.9214 18.6077 6.46866 22.3045 5.1712 24.8817C-0.551846 36.0789 -1.36942 48.9291 2.86065 60.8729C4.3003 64.9075 7.74835 71.1459 8.90362 71.7858C9.73897 72.2479 10.8409 71.4659 10.8409 70.4528C10.8409 70.2928 10.3077 69.333 9.66788 68.3022C1.68761 55.5942 0.870029 39.9536 7.46397 26.659C9.06358 23.4243 11.2142 20.1895 13.4003 17.6834L14.0224 16.9725V17.8612C14.0224 18.3411 13.9513 19.5141 13.8624 20.4383C13.6847 22.3401 13.8269 22.8555 14.6089 23.2465C15.2132 23.5309 15.9419 23.3532 16.2796 22.8377C16.5284 22.4467 17.2394 15.4262 17.2394 13.3112C17.2394 11.9071 16.6173 11.4983 14.7511 11.676Z" fill="#FF5E00"/>
<path d="M40.4512 16.8839C30.2137 18.7501 21.558 26.0728 18.1277 35.8126C16.9902 39.0118 16.6881 40.8069 16.5814 44.6104C16.4926 47.6142 16.5459 48.3784 16.8658 50.2802C18.9453 62.4905 28.5074 72.0526 40.7178 74.1321C42.6195 74.452 43.4016 74.4876 46.2986 74.4165C51.1152 74.2921 53.799 73.6522 57.9402 71.6972C65.1562 68.2491 70.5061 62.1884 73.0654 54.5636C74.9672 48.8405 74.9672 42.1577 73.0654 36.4347C69.7596 26.5526 61.6371 19.2833 51.3818 17.0438C48.8225 16.4751 43.135 16.404 40.4512 16.8839ZM49.6756 19.6388C60.7662 21.4339 69.5641 30.2317 71.3592 41.3224C71.6969 43.3841 71.6969 47.6142 71.3592 49.6759C69.9551 58.3849 64.0188 66.0097 55.9496 69.511C52.5193 71.004 49.4445 71.6261 45.4988 71.6261C40.0424 71.6261 35.4746 70.2575 30.9779 67.2538C24.9172 63.2192 20.7937 56.8208 19.6385 49.6759C19.3008 47.6142 19.3008 43.3841 19.6385 41.3224C21.4158 30.3028 30.1781 21.4872 41.2154 19.6388C43.1172 19.3188 47.7205 19.3188 49.6756 19.6388Z" fill="#FF5E00"/>
<path d="M44.1658 26.1428C38.9048 26.8182 35.0658 31.9547 35.8834 37.2334C36.1677 39.0107 37.2697 41.1969 38.5849 42.5477C39.1537 43.1342 39.6158 43.6318 39.5802 43.6496C39.5625 43.6674 38.9404 43.9873 38.2117 44.3428C36.2921 45.3025 34.9058 46.2979 33.5728 47.6486C30.7113 50.5457 29.0584 54.1893 28.8451 58.0816C28.7384 59.8234 28.7562 59.9301 29.1472 60.3389L29.556 60.7832H45.4988H61.4416L61.8148 60.3744C62.1347 60.0367 62.2058 59.7523 62.2058 58.7037C62.2058 57.1041 61.7793 55.0246 61.1039 53.3361C59.522 49.3371 56.7138 46.2801 52.8925 44.3783C52.1105 43.9873 51.4351 43.6496 51.4173 43.6318C51.3818 43.6141 51.8261 43.1342 52.3949 42.5477C54.2433 40.6459 55.1498 38.4064 55.1675 35.8115C55.1675 29.8396 50.0843 25.3785 44.1658 26.1428ZM47.7205 29.2709C50.1199 30.1062 51.755 32.0258 52.2527 34.6029C52.697 36.8068 51.8794 39.1352 50.0843 40.7881C48.698 42.0678 47.4894 42.5477 45.4988 42.5477C43.5082 42.5477 42.2996 42.0678 40.9132 40.7881C38.5138 38.5664 37.9628 35.3672 39.4914 32.4701C41.0377 29.573 44.5923 28.1867 47.7205 29.2709ZM49.1423 45.9424C51.755 46.6533 54.6166 48.5373 56.3761 50.7234C57.798 52.483 58.9 54.9535 59.2732 57.1752L59.3976 57.9395H45.4988H31.6L31.7244 57.1752C32.6664 51.5588 36.9853 47.0266 42.5839 45.7824C44.1125 45.4447 47.5961 45.5158 49.1423 45.9424Z" fill="#FF5E00"/>
<path d="M80.9556 19.2289C79.8537 19.8687 79.9248 20.4552 81.3289 22.6947C91.122 38.2998 90.0023 57.9039 78.4673 72.247L77.0455 74.0244L76.9921 73.3667C76.9566 72.9935 77.0099 71.8382 77.1166 70.7896C77.3121 68.639 77.1877 68.1414 76.3879 67.7503C75.7836 67.466 75.0548 67.6437 74.7171 68.1591C74.5216 68.4435 74.3439 69.7943 74.1129 72.638C73.6685 77.8457 73.6685 78.4144 74.0951 78.9298C74.5039 79.4453 74.8949 79.4453 80.849 78.9298C84.5992 78.6277 84.6703 78.6099 85.0791 78.13C85.5767 77.5257 85.5945 76.9748 85.1146 76.3527C84.688 75.8195 84.1371 75.7662 80.9734 76.0683C79.907 76.175 79.0183 76.2283 78.9828 76.1927C78.9472 76.175 79.5338 75.4285 80.2625 74.5576C83.2839 70.9496 86.4476 65.4753 88.0828 61.0498C90.5533 54.3136 91.3886 46.2267 90.3578 39.0818C89.9845 36.5046 88.9181 32.239 88.0828 29.9462C86.6964 26.2494 83.8705 20.9351 82.5375 19.5843C81.9332 18.98 81.5421 18.8912 80.9556 19.2289Z" fill="#FF5E00"/>
<path d="M12.0663 74.0963C11.5508 74.5051 11.5508 74.8961 12.0663 80.8502C12.3684 84.6004 12.3862 84.6715 12.8661 85.0803C13.4704 85.578 14.0213 85.5957 14.6434 85.1158C15.1766 84.6893 15.2299 84.1383 14.9278 80.9746C14.8211 79.9082 14.7678 79.0196 14.8034 78.984C14.8211 78.9485 15.5676 79.535 16.4385 80.2637C20.0465 83.2852 25.5208 86.4489 29.9463 88.084C40.1483 91.8164 51.7899 91.692 61.9918 87.693C65.7776 86.2178 71.0385 83.2496 71.7139 82.2188C72.2471 81.419 71.554 80.1571 70.5942 80.1571C70.3631 80.1571 69.3323 80.6903 68.3014 81.3301C59.1125 87.1065 48.484 89.1504 37.7666 87.2487C30.5329 85.9512 23.2458 82.4498 17.6827 77.5799L16.9717 76.9578H17.8604C18.3581 76.9578 19.5133 77.0467 20.4375 77.1356C22.3393 77.3133 22.8547 77.1711 23.2458 76.3891C23.5301 75.7848 23.3524 75.0561 22.837 74.7184C22.5526 74.5229 21.2018 74.3451 18.3581 74.1141C13.1504 73.6698 12.5817 73.6698 12.0663 74.0963Z" fill="#FF5E00"/>
<circle cx="45.5" cy="35.498" r="7.5" fill="#F9B38A"/>
</g>
<defs>
<clipPath id="clip0_742_4400">
<rect width="91" height="91" fill="white" transform="translate(0 -0.00195312)"/>
</clipPath>
</defs>
</svg>
