<svg width="97" height="97" viewBox="0 0 97 97" fill="none" xmlns="http://www.w3.org/2000/svg">
<path d="M85.5009 54.2285C87.1009 57.4285 85.5009 59.5619 84.5009 60.2285C84.5009 60.0619 84.3007 59.4285 83.5 58.2285C82.4991 56.7285 82 57.7285 80 58.2285C78 58.7285 76 58.2285 73.5 57.7285C71.5 57.3285 69 58.8952 68 59.7285V51.7285C69.5 51.5621 73.2 51.0293 76 50.2293C78.8 49.4293 81.5 50.8955 82.5 51.7285C82.8336 51.2285 83.9009 51.0285 85.5009 54.2285Z" fill="#F9B38A"/>
<path d="M11.4991 54.4981C9.89909 57.6981 11.4991 59.8314 12.4991 60.4981C12.4991 60.3314 12.6993 59.698 13.5 58.498C14.5009 56.998 15 57.998 17 58.498C19 58.998 21 58.498 23.5 57.998C25.5 57.598 28 59.1647 29 59.998V51.9981C27.5 51.8317 23.8 51.2989 21 50.4989C18.2 49.6989 15.5 51.165 14.5 51.9981C14.1664 51.4981 13.0991 51.2981 11.4991 54.4981Z" fill="#F9B38A"/>
<path d="M45.5652 1.32507C41.4541 1.96921 36.5662 4.62155 34.1222 7.55807L33.3265 8.4864L31.3941 7.57702C22.1867 3.18171 10.8385 5.56881 4.81385 13.1659C3.60135 14.7005 2.25623 17.3339 1.68787 19.2284C1.11951 21.1608 0.986893 24.6467 1.42264 26.7307C2.25623 30.8798 4.85174 34.9909 8.20506 37.4538C8.69764 37.8137 9.09549 38.2495 9.09549 38.401C9.09549 38.5715 8.52713 40.8071 7.8451 43.3647C6.49998 48.4421 6.46209 48.8778 7.52303 48.8778C7.95877 48.8778 8.75447 48.1958 11.9183 45.013L15.7642 41.1671L17.0146 41.4512C17.9051 41.6596 19.2881 41.7544 21.6941 41.7544C24.6117 41.7544 25.3506 41.6975 26.8094 41.3376C30.2385 40.485 33.0045 39.1399 35.4484 37.1507L37.0588 35.8624L37.7029 36.3171C38.8396 37.1128 41.132 38.2116 42.7234 38.7042C48.0849 40.3903 54.1853 39.5567 58.9027 36.5065L59.9447 35.8434L60.9867 36.7907C63.1844 38.7421 66.2535 40.3335 69.7015 41.2618C71.3687 41.7165 71.8234 41.7544 75.2146 41.7354C77.867 41.7354 79.1932 41.6596 79.951 41.4512L80.993 41.1671L84.8957 45.0319C88.8553 48.9536 89.3289 49.2757 89.9541 48.6505C90.333 48.2715 90.2383 47.779 88.95 42.9858C88.268 40.4661 87.7185 38.3442 87.7185 38.2684C87.7185 38.1926 88.0596 37.9085 88.4574 37.6432C89.7457 36.7907 91.8297 34.5741 92.9285 32.9069C94.8988 29.8567 95.7514 27.0907 95.7324 23.5858C95.7324 20.1378 94.9178 17.4096 93.0422 14.5299C89.31 8.80846 82.717 5.4362 75.3094 5.41726C71.3877 5.41726 67.826 6.25085 64.8326 7.88015L63.639 8.52428L62.4834 7.2739C59.85 4.46999 56.6672 2.5944 52.9539 1.68503C51.192 1.24929 47.2892 1.05983 45.5652 1.32507ZM52.7644 3.57956C58.8459 5.17097 63.6012 9.96413 65.2873 16.1971C65.7799 18.0727 65.7988 22.6575 65.2873 24.5141C63.6201 30.7092 59.2816 35.1803 53.1055 37.0749C51.6088 37.5296 51.1541 37.5674 48.5017 37.5674C45.0347 37.5674 43.576 37.2454 40.8289 35.9003C35.5053 33.2858 31.9625 28.2653 31.2426 22.2786C30.8258 18.9632 31.6215 14.9467 33.2697 11.9913C35.8652 7.33073 40.6584 4.03425 46.1336 3.14382C47.4219 2.95436 51.2678 3.20065 52.7644 3.57956ZM24.157 7.40651C26.3547 7.67175 28.6849 8.35378 30.6363 9.2821L32.1709 10.0399L31.3562 11.6313C30.9015 12.5028 30.4279 13.5827 30.2953 13.9995L30.068 14.7762H21.0121C13.0361 14.7762 11.9373 14.8141 11.6721 15.0794C11.2742 15.4583 11.2931 15.894 11.691 16.3298C11.9752 16.6518 12.5056 16.6708 20.7847 16.6708H29.5943L29.4806 17.1823C29.4238 17.4854 29.3291 18.2432 29.2722 18.8874L29.1396 20.0809L18.2271 20.1188L7.29568 20.1756L7.12518 20.6872C6.97361 21.104 7.0115 21.2934 7.29568 21.5965C7.6367 21.9755 7.82615 21.9755 18.4734 21.9755H29.3101L29.4238 22.9606C29.4996 23.51 29.5943 24.2868 29.6701 24.6657L29.8027 25.3856H19.0039C10.8763 25.3856 8.16717 25.4424 7.99666 25.613C7.6367 25.9729 7.71248 26.8633 8.12928 27.0907C8.37557 27.2044 12.2783 27.2801 19.4775 27.2801H30.4658L31.0531 28.5305C31.8299 30.1977 33.0613 32.0354 34.4064 33.4942L35.4863 34.6878L34.8422 35.2561C32.7203 37.0749 29.8027 38.5905 26.923 39.3483C24.4412 40.0114 20.5385 40.144 18.0945 39.6893C14.817 39.0641 15.499 38.7989 12.2783 41.9817C10.7058 43.5352 9.47439 44.634 9.53123 44.4257C9.58807 44.2173 9.98592 42.7585 10.4027 41.186C10.8385 39.5946 11.1795 38.0979 11.1795 37.8327C11.1795 37.4727 10.7816 37.0559 9.4365 35.976C7.20096 34.1952 5.68533 32.3764 4.62439 30.2167C2.63514 26.1813 2.48357 21.9755 4.16971 17.9401C7.12517 10.8356 15.6127 6.36452 24.157 7.40651ZM79.7805 7.76647C84.9336 8.88425 89.291 11.9344 91.8676 16.1782C93.2316 18.4516 94.1221 22.1839 93.8758 24.6278C93.3832 29.4778 91.034 33.3995 86.8281 36.4686C86.165 36.9423 85.6346 37.4727 85.6346 37.6432C85.6346 37.8137 86.0135 39.3862 86.4871 41.1292C86.9607 42.8721 87.3396 44.3688 87.3396 44.4446C87.3396 44.5393 86.1082 43.3837 84.6115 41.887C81.5045 38.8178 82.1676 39.0641 78.8142 39.6893C76.465 40.1251 72.3918 39.9924 70.251 39.4241C67.2197 38.6284 64.6053 37.3401 62.5213 35.5971L61.3656 34.6499L62.5402 33.3805C63.8853 31.9596 65.3441 29.762 65.9693 28.2653L66.3861 27.2801H77.4123C87.9459 27.2801 88.4574 27.2612 88.8742 26.9202C89.2531 26.6171 89.291 26.4844 89.1394 26.0298L88.95 25.4803L77.9807 25.4235L67.0303 25.3856L67.125 24.9499C67.1818 24.7225 67.3334 23.9647 67.4471 23.2448L67.6744 21.9755H78.3785C85.3883 21.9755 89.1963 21.8997 89.4426 21.786C89.8594 21.5587 89.9351 20.6682 89.5752 20.3083C89.4047 20.1378 86.6766 20.0809 78.4922 20.0809H67.6365V19.1715C67.6176 18.679 67.5418 17.9212 67.466 17.4665L67.3144 16.6708H76.0103C81.6371 16.6708 84.8389 16.595 85.0851 16.4813C85.5019 16.254 85.5777 15.3067 85.1988 14.9846C85.0094 14.852 82.1865 14.7573 75.8967 14.7383L66.8597 14.6815L66.3293 13.3174C66.0262 12.5596 65.5715 11.5745 65.2873 11.1008C65.0221 10.6462 64.7947 10.2104 64.7947 10.1346C64.7947 9.88835 68.3754 8.33483 69.8152 7.97487C73.0928 7.12233 76.5598 7.0655 79.7805 7.76647Z" fill="#FF5E00"/>
<path d="M45.6971 6.59102C45.5076 6.78047 45.2424 7.4625 45.1098 8.0877C44.9014 9.20547 44.8824 9.24336 43.992 9.60332L43.0826 9.98223L42.1354 9.35703C41.6238 8.99707 40.9986 8.71289 40.7334 8.71289C40.0703 8.71289 36.7549 12.0283 36.7549 12.6725C36.7549 12.9188 37.058 13.525 37.418 14.0365L38.0621 14.9459L37.6832 15.8932C37.2854 16.8215 37.2664 16.8404 36.2055 17.0488C34.5004 17.3709 34.5762 17.2193 34.5193 20.2695C34.4814 21.9746 34.5383 23.0545 34.6709 23.2061C34.7846 23.3387 35.4098 23.5471 36.0729 23.6797C37.2854 23.907 37.2854 23.907 37.6832 24.8543L38.0811 25.8016L37.418 26.7678C37.058 27.3172 36.7549 27.9234 36.7549 28.1318C36.7549 28.5297 40.2977 32.2051 40.6766 32.2051C40.7713 32.2051 41.3586 31.883 41.9838 31.4852L43.1016 30.7652L43.992 31.1441C44.8824 31.5041 44.9014 31.542 45.1098 32.6408C45.4697 34.4027 45.6023 34.4785 48.4631 34.4785C51.3049 34.4785 51.3996 34.4217 51.7406 32.6977C51.949 31.7125 52.0438 31.5799 52.6879 31.2389C53.6541 30.7463 53.8814 30.7842 54.8855 31.4662C56.1928 32.3756 56.4391 32.2998 58.3715 30.3863C59.2998 29.458 60.1145 28.5486 60.1713 28.3592C60.2471 28.1318 60.0197 27.5824 59.584 26.8625L58.8641 25.7258L59.224 24.8354C59.584 24.0018 59.6408 23.9449 60.7396 23.6797C62.5395 23.2439 62.5205 23.2629 62.5205 20.3643C62.5205 17.4467 62.5016 17.3898 60.7018 17.0488C59.5461 16.8215 59.5461 16.8215 59.224 15.8932L58.883 14.9838L59.565 13.885C59.9439 13.2787 60.2471 12.6535 60.2471 12.5209C60.2471 12.3693 59.4703 11.46 58.5041 10.4937C56.5148 8.44766 56.1928 8.35293 54.8477 9.28125C53.9004 9.94434 53.8057 9.94434 52.7447 9.54648C52.0059 9.2623 51.968 9.20547 51.7596 8.0877C51.4375 6.36367 51.248 6.25 48.3873 6.25C46.3602 6.25 45.9813 6.30684 45.6971 6.59102ZM49.9408 8.65606C50.3387 10.5506 50.3955 10.6074 52.0059 11.2895C52.8395 11.6305 53.692 11.9146 53.9193 11.9336C54.1277 11.9336 54.6961 11.6873 55.1697 11.3842L56.0412 10.8348L57.0264 11.8389L58.0115 12.843L57.4242 13.6955C57.1021 14.1691 56.8369 14.7186 56.8559 14.908C56.8559 15.0975 57.1779 15.9689 57.5568 16.8594L58.2578 18.4697L59.4514 18.716L60.626 18.9813V20.3643V21.7473L60.0197 21.8799C58.2957 22.2209 58.2389 22.2588 57.5189 24.0018C57.14 24.8922 56.8369 25.7447 56.8369 25.8963C56.8369 26.0479 57.1021 26.5404 57.4053 26.9951C57.7273 27.4498 57.9736 27.8855 57.9736 27.9803C57.9736 28.075 57.5568 28.5676 57.0453 29.0602L56.098 29.9885L55.1697 29.3822C54.6582 29.0602 54.1088 28.7949 53.9572 28.7949C53.7867 28.7949 52.9152 29.098 52.0248 29.477C50.2629 30.2158 50.3955 30.0643 49.9408 32.0535C49.8271 32.565 49.7893 32.584 48.4252 32.584H47.0422L46.8148 31.4662C46.7012 30.841 46.4928 30.2727 46.3602 30.159C45.9813 29.8559 43.3289 28.7949 42.95 28.7949C42.7605 28.7949 42.2111 29.0602 41.7375 29.3822L40.885 29.9695L39.8809 28.9844L38.8578 27.9803L39.4451 27.1277C39.7672 26.673 40.0135 26.1047 40.0135 25.8773C40.0135 25.4416 38.9525 22.8271 38.6494 22.4293C38.5357 22.3156 38.1379 22.1451 37.74 22.0883C36.3191 21.823 36.376 21.8988 36.376 20.3643V18.9623L37.399 18.7539C37.9674 18.6402 38.5168 18.4318 38.6305 18.2992C38.9525 17.9014 40.0135 15.2869 40.0135 14.8512C40.0135 14.6238 39.7672 14.0555 39.4451 13.6008L38.8578 12.7482L39.8619 11.7631L40.885 10.759L41.6807 11.3463C42.1354 11.6684 42.6658 11.9336 42.8932 11.9336C43.5752 11.9336 46.2465 10.759 46.5117 10.3422C46.6443 10.1148 46.8148 9.54648 46.8906 9.03496L47.0043 8.14453H48.4062C49.7893 8.14453 49.8271 8.16348 49.9408 8.65606Z" fill="#FF5E00"/>
<path d="M46.4349 12.9942C42.7595 13.9793 40.2398 17.8821 40.9029 21.5575C41.9828 27.6389 49.0494 30.0639 53.6531 25.9717C54.2593 25.4413 54.7898 24.6834 55.2634 23.7172C55.9455 22.3342 55.9834 22.2016 55.9834 20.3829C55.9834 18.6209 55.9265 18.3557 55.3771 17.2C53.7478 13.7709 50.0345 12.028 46.4349 12.9942ZM50.8302 15.1161C55.1877 17.0485 55.3013 23.4141 51.0007 25.517C50.0914 25.9717 49.6935 26.0475 48.4052 26.0475C47.1359 26.0475 46.7381 25.9528 45.9423 25.536C43.8773 24.4372 42.7406 22.6184 42.7406 20.3639C42.7406 17.7116 44.5025 15.4381 47.0791 14.7561C47.9884 14.5098 49.864 14.6993 50.8302 15.1161Z" fill="#FF5E00"/>
<path d="M11.5569 31.0494C11.2538 31.6178 11.3295 31.9588 11.7842 32.2809C12.1631 32.5461 13.3567 32.584 21.1432 32.584C29.536 32.584 30.0854 32.565 30.3696 32.243C30.7485 31.8262 30.7864 31.2389 30.4643 30.9168C30.2938 30.7463 27.9256 30.6895 20.9916 30.6895C12.0495 30.6895 11.7463 30.7084 11.5569 31.0494Z" fill="#FF5E00"/>
<path d="M66.3108 31.0494C66.0077 31.6178 66.0834 31.9588 66.5381 32.2808C66.917 32.5461 68.1106 32.584 75.9161 32.584C85.5971 32.584 85.4455 32.6029 85.4455 31.5609C85.4455 30.6894 85.5213 30.6894 75.7455 30.6894C66.8034 30.6894 66.5002 30.7084 66.3108 31.0494Z" fill="#FF5E00"/>
<path d="M15.7629 49.6348C15.3272 49.8621 14.7967 50.26 14.6073 50.5062C14.4178 50.7525 14.0579 50.9609 13.8116 50.9609C12.4286 50.9799 10.8182 52.4008 10.3256 54.0301C9.96568 55.2615 9.94674 58.4064 10.3067 59.96C10.9129 62.6691 11.595 65.0562 12.0307 66.0414C12.5422 67.1971 13.8874 69.1674 14.6452 69.8873C14.9483 70.1525 15.0809 70.4367 15.0241 70.6451C14.8346 71.1566 14.0389 72.1607 13.6221 72.3691C13.4327 72.4828 11.7087 72.9943 9.83307 73.5059C5.83561 74.6047 4.2442 75.3057 3.0317 76.5182C1.38346 78.1664 1.09928 80.0988 1.17506 89.1547C1.21295 93.9668 1.28873 95.293 1.49713 95.5393C1.72447 95.8424 3.25904 95.8613 19.893 95.8613C36.527 95.8613 38.0616 95.8424 38.2889 95.5393C38.4973 95.3119 38.5731 94.0236 38.611 89.6283C38.6868 83.5658 38.4594 79.8336 37.9669 78.3369C37.5311 77.1055 36.2239 75.8172 34.6514 75.0594C33.6094 74.5668 30.4645 73.6006 27.1301 72.748C26.2018 72.5207 25.1598 71.6682 24.8378 70.8914C24.6294 70.3988 24.6672 70.3041 25.4061 69.5273C26.9407 67.917 28.1342 65.5867 28.6268 63.2186C28.7405 62.707 29.0436 61.8734 29.271 61.3998C29.5172 60.9262 29.8014 60.0736 29.9151 59.5242C30.1803 58.2549 30.1803 54.9773 29.9151 53.4996C29.6878 52.1924 29.1952 50.582 29.0247 50.5631C28.9489 50.5631 27.869 50.5252 26.6186 50.4873C24.9514 50.4494 23.7958 50.2978 22.2612 49.9189C21.1055 49.6348 19.3815 49.3695 18.3774 49.3127C16.786 49.2369 16.4829 49.2748 15.7629 49.6348ZM21.5981 51.7187C23.0001 52.0408 24.9893 52.3439 25.9934 52.4197L27.8122 52.5334L28.0206 53.708C28.1342 54.3521 28.229 55.773 28.229 56.8529V58.8232L27.7364 58.198C26.7323 56.9287 25.7092 56.7771 22.8296 57.4023C19.9309 58.0465 18.7374 58.0844 16.6534 57.535C15.6682 57.2697 14.6073 57.0992 14.2852 57.1561C13.6221 57.2887 12.8075 58.0086 12.4854 58.7664C12.1254 59.6568 11.936 59.0506 11.936 56.9287C11.936 54.0301 12.7506 52.666 14.2663 52.9502C14.8157 53.0639 14.9862 53.007 15.4219 52.5334C15.6872 52.2492 15.9145 51.9461 15.9145 51.8703C15.9145 51.5482 17.0323 51.1693 17.9985 51.1504C18.5669 51.1504 20.1962 51.4156 21.5981 51.7187ZM19.1163 59.8652C19.7036 59.8652 21.2381 59.6379 22.5454 59.3916C23.8526 59.1264 25.1409 58.918 25.4251 58.918C26.0881 58.918 26.4671 59.4674 26.7512 60.8883C27.0544 62.2902 26.7702 63.6353 25.785 65.6436C24.6104 68.0307 23.019 69.4516 20.9919 69.982C20.0256 70.2283 19.7604 70.2283 18.8131 69.982C16.1608 69.3 14.0579 66.9129 13.1485 63.5217L12.8264 62.3281L13.4895 61.0398C13.8495 60.3389 14.2473 59.5811 14.361 59.3537L14.5883 58.9559L16.3313 59.4105C17.2786 59.6568 18.5479 59.8652 19.1163 59.8652ZM18.7184 71.8955C19.8741 72.1418 20.8024 72.0471 22.678 71.4977C22.9811 71.4219 23.1137 71.4787 23.2085 71.8008C23.2842 72.0281 23.6253 72.5396 23.9852 72.9375L24.6294 73.6574L23.9663 74.2447C22.7917 75.2678 21.8444 75.6467 20.1583 75.7414C18.7942 75.8172 18.4721 75.7603 17.5817 75.3625C17.0133 75.0973 16.2366 74.6047 15.8577 74.2637L15.1567 73.6574L15.744 72.9943C16.0661 72.6154 16.426 72.1229 16.5397 71.8576C16.6913 71.5166 16.8428 71.4219 17.127 71.5166C17.3544 71.5734 18.0553 71.7439 18.7184 71.8955ZM16.4829 76.9539C17.0512 77.2381 17.8469 77.5033 18.2448 77.5791L18.9458 77.7117V85.8393V93.9668H14.4936H10.0415V89.5336C10.0415 85.252 10.0225 85.0814 9.64361 84.8162C9.13209 84.4562 8.54479 84.6268 8.31744 85.1951C8.22271 85.4414 8.14693 87.5254 8.14693 89.8178V93.9668H5.58932H3.0317V88.3211C3.0317 79.8146 3.29693 78.4127 5.05885 77.276C6.21451 76.5561 7.48385 76.1014 10.7046 75.2109L13.3569 74.51L14.3989 75.4951C14.9672 76.0256 15.9145 76.6887 16.4829 76.9539ZM31.6391 75.9687C32.6243 76.2719 33.9126 76.8023 34.4809 77.1434C36.4891 78.3559 36.7354 79.5873 36.7544 88.6053V93.9668H34.1967H31.6391V89.6473C31.6391 85.1951 31.5823 84.892 30.8624 84.6268C30.6919 84.5699 30.3698 84.6457 30.1424 84.7973C29.7635 85.0814 29.7446 85.2141 29.7446 89.5336V93.9668H25.2924H20.8403V85.8582V77.7686L22.0338 77.4275C23.4169 77.0107 24.6294 76.2908 25.6335 75.2488L26.3723 74.491L28.0963 74.9646C29.0626 75.2109 30.654 75.6656 31.6391 75.9687Z" fill="#FF5E00"/>
<path d="M77.2021 49.3885C76.9937 49.4264 75.8381 49.6916 74.6445 49.9568C73.1099 50.3168 71.8217 50.4684 70.2871 50.5063C69.0935 50.5252 68.0515 50.5441 67.9758 50.5631C67.9189 50.582 67.7295 50.9799 67.559 51.4725C66.5549 54.6363 66.6685 59.7705 67.8052 61.6461C67.9947 61.9682 68.2599 62.6691 68.3736 63.1996C68.8662 65.5867 70.4765 68.6748 71.8217 69.8115C72.3711 70.2473 72.39 70.342 72.1816 70.8346C71.6701 72.085 70.9881 72.4449 67.199 73.468C63.0689 74.5857 61.4586 75.3057 60.2461 76.5182C59.1093 77.6549 58.7683 78.659 58.522 81.6523C58.2379 85.0814 58.3705 95.1414 58.7115 95.5393C58.9388 95.8424 60.4734 95.8613 77.1074 95.8613C93.7603 95.8613 95.276 95.8424 95.5033 95.5393C95.7117 95.293 95.7685 93.8342 95.7685 87.8285C95.7496 81.3492 95.7117 80.2693 95.4275 79.1895C94.5939 76.1393 92.9836 75.0404 86.8263 73.4111C83.3404 72.4639 83.151 72.3881 82.5447 71.5545C81.8437 70.6262 81.8248 70.3799 82.3552 69.8873C83.1131 69.1674 84.4582 67.1971 84.9886 66.0225C85.2539 65.4162 85.6328 64.2416 85.8412 63.3891C86.0306 62.5365 86.3338 61.4188 86.5043 60.9072C86.959 59.4484 87.0916 55.4699 86.7127 54.1816C86.2011 52.4387 84.6097 50.9799 83.1888 50.9609C82.9426 50.9609 82.5826 50.7525 82.3931 50.5063C81.749 49.6727 80.5554 49.2559 78.983 49.2748C78.2062 49.2938 77.4105 49.3316 77.2021 49.3885ZM80.5176 51.4346C80.8396 51.6051 81.0859 51.7945 81.0859 51.8703C81.0859 51.9461 81.3133 52.2492 81.5785 52.5334C82.0142 53.007 82.1847 53.0639 82.7342 52.9502C84.2498 52.666 85.0644 54.0301 85.0644 56.9287C85.0644 59.0506 84.875 59.6568 84.515 58.7664C84.3824 58.4633 84.0414 57.9707 83.7383 57.6865C83.0752 57.0424 82.1469 57.0234 80.0439 57.6107C78.301 58.0844 76.9937 58.0465 74.1709 57.4023C71.2912 56.7771 70.2681 56.9287 69.264 58.198L68.7715 58.8232V56.8529C68.7715 55.773 68.8662 54.3521 68.9799 53.708L69.1883 52.5334L71.007 52.4197C72.0111 52.3439 73.9056 52.0408 75.2129 51.7377C77.941 51.1125 79.7029 51.0178 80.5176 51.4346ZM74.0383 59.3348C76.5011 59.8842 79.1535 59.9031 81.0291 59.3537L82.3931 58.9559L83.2646 60.5662C83.7383 61.4566 84.1172 62.3281 84.1172 62.4986C84.1172 62.6691 83.8709 63.5027 83.5677 64.3553C82.5447 67.2918 80.5554 69.3758 78.2062 69.982C77.24 70.2283 76.9748 70.2283 76.0275 69.982C73.9246 69.4516 72.2385 67.8791 71.0449 65.3215C70.2113 63.5406 69.965 62.1955 70.2492 60.8883C70.6849 58.7475 70.9502 58.6338 74.0383 59.3348ZM75.9328 71.8955C77.0885 72.1418 78.0357 72.0471 79.8734 71.5166C80.1576 71.4219 80.3092 71.5166 80.4607 71.8576C80.5744 72.1229 80.9343 72.6154 81.2564 72.9943L81.8437 73.6574L81.1427 74.2637C80.7638 74.6047 79.9871 75.0973 79.4187 75.3625C78.5283 75.7604 78.2062 75.8172 76.8422 75.7414C75.156 75.6467 74.2088 75.2678 73.0342 74.2447L72.3711 73.6574L73.0152 72.9375C73.3752 72.5396 73.7162 72.0281 73.792 71.8008C73.8867 71.4787 74.0193 71.4219 74.3224 71.4977C74.5498 71.5734 75.2697 71.7439 75.9328 71.8955ZM73.072 76.6129C73.5078 76.8781 74.3793 77.2381 75.0045 77.4275L76.1601 77.7686V85.8582V93.9668H71.708H67.2558V89.5336C67.2558 85.2141 67.2369 85.0814 66.858 84.7973C66.6306 84.6457 66.3086 84.5699 66.1381 84.6268C65.4181 84.892 65.3613 85.1951 65.3613 89.6473V93.9668H62.7847H60.2082L60.3029 87.2033C60.4166 78.4127 60.4924 78.1285 63.1447 76.8213C63.9025 76.4613 65.8728 75.7793 67.54 75.3246L70.5713 74.491L71.4238 75.3057C71.8974 75.7604 72.6363 76.3287 73.072 76.6129ZM89.4976 76.1582C91.2974 76.7455 92.6615 77.6359 93.1541 78.5453C93.7793 79.6631 93.9687 81.9176 93.9687 88.3211V93.9668H91.4301H88.8724L88.8156 89.5146C88.7777 86.4455 88.683 85.0057 88.5314 84.8541C88.2283 84.551 87.3379 84.5699 87.1295 84.892C87.0347 85.0436 86.959 87.1465 86.959 89.5525V93.9668H82.5068H78.0547V85.8582V77.7686L79.2293 77.4275C80.726 76.9918 81.7301 76.3855 82.7531 75.3436L83.5867 74.491L85.9549 75.1352C87.2621 75.4762 88.8535 75.9309 89.4976 76.1582Z" fill="#FF5E00"/>
</svg>
