<svg width="80" height="134" viewBox="0 0 80 134" fill="none" xmlns="http://www.w3.org/2000/svg">
<path d="M1 1.78711C12.819 20.0773 21.394 39.5356 33.212 57.8248C35.489 51.1923 41.112 42.9165 44.236 36.7312" stroke="#E5E5E5" stroke-width="2" stroke-miterlimit="10"/>
<path d="M2.13281 2.14648C19.8968 18.1226 37.7058 31.8247 56.7548 45.8466C56.5478 40.671 54.9449 34.4556 54.0479 29.3592" stroke="#E5E5E5" stroke-width="2" stroke-miterlimit="10"/>
<path d="M1.05078 1C14.6348 7.32667 25.5368 12.2937 37.6208 19.4035C43.3778 22.7894 47.8698 25.5667 53.5208 29.1732" stroke="#E5E5E5" stroke-width="2" stroke-miterlimit="10"/>
<path d="M54.1992 29.7067C58.6142 25.4685 64.5862 22.9298 69.8542 20.1094" stroke="#E5E5E5" stroke-width="2" stroke-miterlimit="10"/>
<path d="M1.92188 1.00391C24.8839 5.94322 47.5256 12.2762 69.7219 19.9679" stroke="#E5E5E5" stroke-width="2" stroke-miterlimit="10"/>
<path d="M68.8518 59.2871C78.2738 72.53 78.3318 91.7547 68.9878 105.054C66.7378 108.256 63.8368 111.232 60.1008 112.379C56.3648 113.526 51.7008 112.304 49.9008 108.831C48.1008 105.357 49.7008 100.91 52.5688 98.2698C57.4868 93.7389 65.6048 93.6496 71.1088 97.4426C76.6128 101.236 79.4358 108.271 78.9408 114.953C78.4458 121.634 74.9338 127.863 70.0738 132.457" stroke="#E5E5E5" stroke-width="2" stroke-miterlimit="10" stroke-linecap="round" stroke-dasharray="3.14 5.24"/>
</svg>
