<svg width="166" height="455" viewBox="0 0 166 455" fill="none" xmlns="http://www.w3.org/2000/svg">
<g clip-path="url(#clip0_742_4288)">
<path d="M53.1213 432.324H81.6562V437.42H53.1213V432.324Z" fill="#F6A48C"/>
<path d="M53.7758 437.42C53.7758 437.42 35.9097 447.082 31.5837 454.946H85.7188L81.5188 437.42H53.7758Z" fill="#181715"/>
<path d="M121.399 432.324H149.934V437.42H121.399V432.324Z" fill="#F6A48C"/>
<path d="M122.053 437.42C122.053 437.42 104.187 447.082 99.8611 454.946H153.996L149.796 437.42H122.053Z" fill="#181715"/>
<path d="M43.0663 187.371L49.5213 157.951L104.911 160.396L133.111 170.042C133.111 170.042 139.011 199.796 139.529 209.405C140.047 219.014 156.113 433.34 156.113 433.34H112.113C112.113 433.34 95.3033 347.977 93.3733 328.348C91.4433 308.719 83.7273 264.878 82.1363 213.561C82.7633 249.733 85.6573 433.34 85.6573 433.34H46.1093L38.7253 295.696C38.7253 295.696 39.6903 212.114 43.0663 195.378C43.6343 192.566 43.0663 187.371 43.0663 187.371Z" fill="#7551E8"/>
<path d="M108.757 188.213L122.533 141.607L111.988 85.8711L134.32 137.351L108.757 188.213Z" fill="#E06656"/>
<path d="M106.724 49.4238C106.724 49.4238 139.53 50.0829 145.238 69.9719C150.946 89.8609 158.184 112.626 158.184 112.626L124.423 116.337L115.598 96.4468L126.357 140.763L111.423 187.763H97.4456L106.724 49.4238Z" fill="#FF7867"/>
<path d="M82.3428 51.553C82.3428 51.553 77.1658 52.053 77.1658 54.753C77.1658 57.453 66.3578 158.995 66.3578 158.995L99.4578 160.565L106.719 49.401L102.861 48.584C102.861 48.584 106.288 56.073 86.1248 57.643C81.6078 57.995 82.3428 51.553 82.3428 51.553Z" fill="white"/>
<path d="M123.504 114.513L157.75 111.312L164.028 131.223C164.028 131.223 167.979 139.411 160.077 149.51C152.175 159.609 114.754 215.202 114.754 215.202H101.365L94.9699 209.402C94.9699 209.402 98.8059 199.135 105.284 195.34C109.363 188.276 133.252 137.892 133.252 137.892L123.504 114.513Z" fill="#F6A48C"/>
<path d="M52.7733 67.4893C59.4692 60.0258 68.3775 54.9005 78.1953 52.8633C78.1953 67.5473 62.9623 189.347 62.9623 189.347H34.0243L52.7733 125.992V67.4893Z" fill="#FF7867"/>
<path d="M0.415977 75.5377C0.415977 75.5377 -1.78404 69.0137 3.94296 68.9427C9.66995 68.8717 55.812 68.9427 55.812 68.9427C55.812 68.9427 62.32 67.9507 63.697 75.5757C65.074 83.2007 75.36 129.392 75.36 129.392C75.36 129.392 77.666 138.092 72.519 138.092H18.902C18.902 138.092 13.853 138.649 13.237 133.925C12.621 129.201 0.415977 75.5377 0.415977 75.5377Z" fill="#C8DEF2"/>
<path d="M38.3408 109.488C34.6825 109.488 31.7168 106.523 31.7168 102.864C31.7168 99.2059 34.6825 96.2402 38.3408 96.2402C41.9992 96.2402 44.9648 99.2059 44.9648 102.864C44.9648 106.523 41.9992 109.488 38.3408 109.488Z" fill="white"/>
<path d="M71.2269 11.8509C71.2269 11.8509 66.1088 36.9599 84.1268 42.4159C84.1268 46.7859 81.5159 50.8979 81.6979 55.9249C81.8799 60.9519 99.5459 56.8859 103.092 51.5989C103.092 45.0989 100.218 32.6129 100.218 32.6129C100.218 32.6129 99.5488 29.5309 103.546 28.8699C107.543 28.2089 108.171 18.8318 103.092 18.6238C98.0129 18.4158 97.7529 24.9518 97.7529 16.1628C97.7529 10.0188 94.7839 10.4629 94.7839 10.4629L74.5139 7.46289L71.2269 11.8509Z" fill="#F6A48C"/>
<path d="M70.6504 14.5204C70.6504 14.5204 66.8615 14.1134 67.3225 8.42038C67.5375 5.76938 70.0824 -2.12661 90.7884 0.53439C101.91 1.96439 103.152 10.7014 103.04 18.7974C98.7664 18.7974 98.1565 24.4854 96.9325 22.3154C95.7085 20.1454 97.0865 10.8454 91.5705 11.0814C86.0545 11.3174 82.7104 13.6644 71.5894 11.7254V14.7464L70.6504 14.5204Z" fill="#181715"/>
<path d="M0.163586 119.611C0.0785866 117.399 1.06358 114.887 5.24858 113.427C9.43358 111.967 13.9226 115.284 21.2536 114.727C28.5846 114.17 17.1856 119.096 13.1296 118.827C9.07359 118.558 24.1746 122.38 25.4296 122.534C26.6846 122.688 25.3466 125.603 21.2496 125.526C17.1526 125.449 24.9566 126.395 24.9566 126.395C24.9566 126.395 22.6746 129.517 17.6256 128.725C16.2256 128.505 26.2996 132.432 15.0256 132.231C3.75159 132.03 0.358585 124.69 0.163586 119.611Z" fill="#F6A48C"/>
<path d="M83.1109 213.908L69.3639 299.038L84.4219 354.081L83.1109 213.908Z" fill="#4A419D"/>
</g>
<defs>
<clipPath id="clip0_742_4288">
<rect width="165.016" height="454.946" fill="white" transform="matrix(-1 0 0 1 165.016 0)"/>
</clipPath>
</defs>
</svg>
